<svg width="1024" height="768" viewBox="0 0 1024 768" fill="none" xmlns="http://www.w3.org/2000/svg">
<g clip-path="url(#clip0_688_16897)">
<rect width="1024" height="768" rx="18" fill="#F8F8F8"/>
<path d="M1268.8 40H40V961.6H1268.8V40Z" fill="white"/>
<path d="M1006 0H18C8.05888 0 0 8.05888 0 18V750C0 759.941 8.05888 768 18 768H1006C1015.94 768 1024 759.941 1024 750V18C1024 8.05888 1015.94 0 1006 0Z" fill="#F8F8F8"/>
<path d="M689.589 481.188C689.589 484.995 689.474 488.797 689.25 492.599C689.026 496.401 688.693 500.188 688.245 503.969C687.797 507.75 687.24 511.516 686.568 515.266C685.901 519.01 685.12 522.734 684.234 526.438C683.344 530.141 682.344 533.813 681.24 537.458C680.136 541.099 678.922 544.708 677.604 548.281C676.287 551.849 674.87 555.38 673.344 558.87C671.818 562.359 670.188 565.797 668.458 569.188C666.734 572.583 664.906 575.922 662.979 579.203C661.057 582.49 659.037 585.714 656.922 588.88C654.802 592.047 652.599 595.146 650.302 598.182C648 601.219 645.615 604.182 643.146 607.078C640.672 609.974 638.115 612.792 635.479 615.536C632.839 618.281 630.12 620.943 627.328 623.531C624.531 626.115 621.662 628.615 618.719 631.031C615.776 633.443 612.766 635.771 609.682 638.01L495.745 481.188H689.589Z" fill="#DEDBEC"/>
<path d="M609.682 638.01C607.115 639.875 604.505 641.672 601.849 643.411C599.198 645.146 596.5 646.818 593.766 648.422C591.026 650.026 588.25 651.563 585.438 653.031C582.625 654.495 579.781 655.896 576.901 657.224C574.021 658.552 571.109 659.807 568.167 660.995C565.224 662.177 562.25 663.292 559.255 664.328C556.255 665.37 553.234 666.333 550.193 667.224C547.146 668.115 544.083 668.932 540.995 669.672C537.911 670.411 534.813 671.078 531.693 671.667C528.578 672.255 525.448 672.766 522.302 673.203C519.161 673.635 516.01 673.995 512.849 674.271C509.693 674.552 506.526 674.755 503.354 674.88C500.188 675.005 497.016 675.052 493.844 675.021C490.672 674.99 487.5 674.88 484.333 674.693C481.167 674.505 478.005 674.24 474.854 673.901C471.698 673.557 468.557 673.141 465.422 672.641C462.286 672.146 459.172 671.573 456.063 670.922C452.958 670.276 449.87 669.547 446.802 668.75C443.734 667.948 440.682 667.073 437.656 666.12C434.63 665.172 431.63 664.146 428.656 663.047C425.677 661.948 422.729 660.781 419.813 659.536C416.891 658.292 414.005 656.979 411.151 655.594C408.297 654.214 405.479 652.76 402.698 651.234C399.911 649.714 397.167 648.12 394.464 646.464C391.76 644.807 389.094 643.083 386.474 641.297C383.854 639.505 381.281 637.656 378.75 635.74C376.224 633.828 373.74 631.849 371.307 629.813C368.875 627.776 366.495 625.682 364.167 623.531C361.839 621.375 359.563 619.167 357.339 616.901C355.12 614.635 352.953 612.318 350.849 609.948C348.74 607.578 346.693 605.156 344.703 602.682C342.714 600.208 340.786 597.693 338.922 595.125L495.745 481.188L609.682 638.01Z" fill="#5B4D9E"/>
<path d="M338.922 595.125C335.938 591.016 333.12 586.797 330.469 582.469C327.818 578.141 325.339 573.714 323.031 569.188C320.724 564.667 318.604 560.057 316.661 555.37C314.714 550.677 312.958 545.917 311.391 541.089C309.823 536.26 308.443 531.375 307.26 526.438C306.073 521.5 305.083 516.526 304.292 511.51C303.495 506.495 302.901 501.458 302.5 496.396C302.104 491.333 301.906 486.266 301.906 481.188C301.906 476.109 302.104 471.042 302.5 465.979C302.901 460.917 303.495 455.88 304.292 450.865C305.083 445.849 306.073 440.875 307.26 435.938C308.443 431 309.823 426.115 311.391 421.286C312.958 416.458 314.714 411.698 316.661 407.005C318.604 402.318 320.724 397.708 323.031 393.182C325.339 388.661 327.818 384.234 330.469 379.906C333.12 375.578 335.938 371.359 338.922 367.25L495.745 481.188L338.922 595.125Z" fill="#7C71B1"/>
<path d="M338.922 367.25C341.906 363.141 345.052 359.156 348.349 355.297C351.646 351.438 355.089 347.708 358.677 344.12C362.271 340.531 365.995 337.089 369.854 333.786C373.719 330.49 377.703 327.349 381.807 324.365C385.917 321.38 390.135 318.563 394.464 315.911C398.792 313.255 403.219 310.776 407.745 308.474C412.266 306.167 416.875 304.042 421.568 302.099C426.255 300.156 431.016 298.401 435.844 296.833C440.672 295.266 445.557 293.885 450.495 292.703C455.432 291.516 460.406 290.526 465.422 289.729C470.438 288.938 475.474 288.339 480.536 287.943C485.599 287.547 490.667 287.344 495.745 287.344C500.823 287.344 505.891 287.547 510.953 287.943C516.016 288.339 521.052 288.938 526.068 289.729C531.083 290.526 536.063 291.516 540.995 292.703C545.932 293.885 550.818 295.266 555.646 296.833L495.745 481.188L338.922 367.25Z" fill="#BDB8D8"/>
<path d="M555.646 296.833C560.474 298.401 565.234 300.156 569.927 302.099C574.615 304.042 579.224 306.167 583.745 308.474C588.271 310.776 592.698 313.255 597.026 315.906C601.354 318.563 605.573 321.38 609.677 324.365C613.787 327.349 617.771 330.49 621.63 333.787C625.49 337.083 629.219 340.526 632.807 344.115C636.396 347.703 639.844 351.432 643.141 355.292C646.438 359.151 649.578 363.135 652.563 367.24C655.547 371.349 658.365 375.568 661.016 379.896C663.672 384.224 666.151 388.651 668.453 393.172C670.761 397.698 672.886 402.302 674.828 406.995C676.771 411.688 678.526 416.443 680.094 421.271C681.667 426.099 683.042 430.984 684.229 435.922C685.412 440.859 686.406 445.833 687.198 450.849C687.995 455.859 688.589 460.901 688.99 465.958C689.386 471.021 689.589 476.089 689.589 481.167L495.745 481.188L555.646 296.833Z" fill="#9D94C5"/>
<path d="M398.978 97.3627C400.603 97.7117 401.858 98.4148 402.749 99.4669C403.635 100.524 404.082 101.878 404.082 103.529C404.082 105.654 403.296 107.295 401.728 108.446C400.155 109.587 397.838 110.154 394.77 110.154H383.353V85.3419H394.062C396.822 85.3419 398.963 85.8991 400.478 87.0085C402.004 88.1231 402.77 89.6908 402.77 91.7169C402.77 93.0919 402.426 94.2585 401.749 95.2169C401.082 96.1752 400.155 96.8939 398.978 97.3627ZM385.978 87.5085V96.5085H393.874C395.885 96.5085 397.437 96.1283 398.52 95.3627C399.603 94.6023 400.145 93.4825 400.145 92.0085C400.145 90.5502 399.603 89.4408 398.52 88.6752C397.437 87.8991 395.885 87.5085 393.874 87.5085H385.978ZM394.728 107.988C396.947 107.988 398.624 107.613 399.749 106.863C400.885 106.102 401.457 104.92 401.457 103.321C401.457 100.227 399.213 98.6752 394.728 98.6752H385.978V107.988H394.728Z" fill="#3B3A3A"/>
<path d="M427.395 91.5085V110.154H424.979V106.758C424.312 107.883 423.4 108.769 422.249 109.404C421.093 110.029 419.775 110.342 418.291 110.342C415.843 110.342 413.921 109.665 412.52 108.3C411.114 106.941 410.416 104.946 410.416 102.321V91.5085H412.937V102.071C412.937 104.029 413.416 105.524 414.374 106.55C415.343 107.566 416.729 108.071 418.52 108.071C420.489 108.071 422.041 107.477 423.166 106.279C424.301 105.087 424.874 103.425 424.874 101.3V91.5085H427.395Z" fill="#3B3A3A"/>
<path d="M445.318 109.029C444.844 109.446 444.255 109.774 443.547 110.008C442.849 110.227 442.13 110.342 441.38 110.342C439.63 110.342 438.281 109.873 437.339 108.925C436.391 107.967 435.922 106.628 435.922 104.904V93.6335H432.589V91.5085H435.922V87.446H438.443V91.5085H444.109V93.6335H438.443V104.758C438.443 105.873 438.719 106.717 439.276 107.3C439.828 107.883 440.62 108.175 441.651 108.175C442.177 108.175 442.682 108.092 443.172 107.925C443.656 107.758 444.073 107.524 444.422 107.217L445.318 109.029Z" fill="#3B3A3A"/>
<path d="M461.814 85.3419H464.439V110.154H461.814V85.3419Z" fill="#3B3A3A"/>
<path d="M473.324 83.6752C473.866 83.6752 474.309 83.8627 474.658 84.2377C475.017 84.6023 475.199 85.0502 475.199 85.5918C475.199 85.8835 475.158 86.1908 475.074 86.5085C474.991 86.8314 474.876 87.196 474.741 87.6127L473.22 92.5085H471.512L472.762 87.4043C472.355 87.2793 472.038 87.0658 471.803 86.7585C471.564 86.4408 471.449 86.0502 471.449 85.5918C471.449 85.0241 471.621 84.5658 471.97 84.2168C472.329 83.8575 472.783 83.6752 473.324 83.6752Z" fill="#3B3A3A"/>
<path d="M498.626 83.8627V110.154H496.209V106.467C495.459 107.717 494.459 108.675 493.209 109.342C491.97 110.009 490.574 110.342 489.022 110.342C487.272 110.342 485.688 109.941 484.272 109.134C482.855 108.331 481.74 107.206 480.938 105.759C480.131 104.316 479.73 102.675 479.73 100.842C479.73 98.9981 480.131 97.3523 480.938 95.9043C481.74 94.4616 482.855 93.3418 484.272 92.5502C485.688 91.7585 487.272 91.3627 489.022 91.3627C490.532 91.3627 491.897 91.6856 493.105 92.321C494.324 92.946 495.324 93.8575 496.105 95.0502V83.8627H498.626ZM489.23 108.092C490.532 108.092 491.709 107.795 492.751 107.196C493.803 106.602 494.631 105.748 495.23 104.634C495.839 103.524 496.147 102.259 496.147 100.842C496.147 99.4252 495.839 98.1648 495.23 97.0502C494.631 95.9408 493.803 95.0866 492.751 94.4877C491.709 93.8783 490.532 93.571 489.23 93.571C487.907 93.571 486.72 93.8783 485.667 94.4877C484.61 95.0866 483.782 95.9408 483.188 97.0502C482.589 98.1648 482.292 99.4252 482.292 100.842C482.292 102.259 482.589 103.524 483.188 104.634C483.782 105.748 484.61 106.602 485.667 107.196C486.72 107.795 487.907 108.092 489.23 108.092Z" fill="#3B3A3A"/>
<path d="M517.028 83.8627H519.548V110.154H517.028V83.8627Z" fill="#3B3A3A"/>
<path d="M527.619 91.5085H530.14V110.154H527.619V91.5085ZM528.911 87.446C528.38 87.446 527.937 87.2741 527.577 86.9252C527.229 86.5658 527.057 86.1335 527.057 85.6335C527.057 85.1648 527.229 84.7533 527.577 84.4043C527.937 84.045 528.38 83.8627 528.911 83.8627C529.421 83.8627 529.854 84.0398 530.202 84.3835C530.562 84.7168 530.744 85.1231 530.744 85.5918C530.744 86.1231 530.562 86.5658 530.202 86.9252C529.854 87.2741 529.421 87.446 528.911 87.446Z" fill="#3B3A3A"/>
<path d="M545.127 100.8L540.731 104.842V110.154H538.21V83.8627H540.731V101.675L551.856 91.5085H554.981L547.002 99.1335L555.731 110.154H552.648L545.127 100.8Z" fill="#3B3A3A"/>
<path d="M576.791 101.613H561.208C561.343 103.561 562.088 105.128 563.437 106.321C564.781 107.503 566.484 108.092 568.541 108.092C569.692 108.092 570.755 107.894 571.729 107.488C572.697 107.071 573.541 106.462 574.25 105.654L575.666 107.279C574.833 108.279 573.796 109.045 572.562 109.571C571.322 110.087 569.963 110.342 568.479 110.342C566.562 110.342 564.859 109.936 563.375 109.113C561.901 108.295 560.75 107.17 559.916 105.738C559.093 104.295 558.687 102.665 558.687 100.842C558.687 99.0241 559.083 97.3939 559.875 95.946C560.666 94.5033 561.75 93.3783 563.125 92.571C564.51 91.7689 566.067 91.3627 567.791 91.3627C569.526 91.3627 571.072 91.7689 572.437 92.571C573.812 93.3783 574.885 94.4981 575.666 95.9252C576.442 97.3575 576.833 98.9981 576.833 100.842L576.791 101.613ZM567.791 93.5293C566 93.5293 564.489 94.1075 563.27 95.2585C562.062 96.3991 561.375 97.8939 561.208 99.7377H574.416C574.26 97.8939 573.572 96.3991 572.354 95.2585C571.13 94.1075 569.609 93.5293 567.791 93.5293Z" fill="#3B3A3A"/>
<path d="M603.196 109.029C602.722 109.446 602.134 109.774 601.426 110.008C600.728 110.227 600.009 110.342 599.259 110.342C597.509 110.342 596.16 109.873 595.217 108.925C594.269 107.967 593.801 106.628 593.801 104.904V93.6335H590.467V91.5085H593.801V87.446H596.321V91.5085H601.988V93.6335H596.321V104.758C596.321 105.873 596.597 106.717 597.155 107.3C597.707 107.883 598.499 108.175 599.53 108.175C600.056 108.175 600.561 108.092 601.051 107.925C601.535 107.758 601.952 107.524 602.301 107.217L603.196 109.029Z" fill="#3B3A3A"/>
<path d="M616.433 110.342C614.641 110.342 613.021 109.936 611.578 109.113C610.131 108.295 608.995 107.17 608.162 105.738C607.339 104.295 606.933 102.665 606.933 100.842C606.933 99.0241 607.339 97.3939 608.162 95.946C608.995 94.5033 610.131 93.3783 611.578 92.571C613.021 91.7689 614.641 91.3627 616.433 91.3627C618.224 91.3627 619.839 91.7689 621.287 92.571C622.729 93.3783 623.854 94.5033 624.662 95.946C625.479 97.3939 625.891 99.0241 625.891 100.842C625.891 102.665 625.479 104.295 624.662 105.738C623.854 107.17 622.729 108.295 621.287 109.113C619.839 109.936 618.224 110.342 616.433 110.342ZM616.433 108.092C617.75 108.092 618.938 107.795 619.995 107.196C621.047 106.602 621.87 105.748 622.453 104.634C623.047 103.524 623.349 102.259 623.349 100.842C623.349 99.4252 623.047 98.1648 622.453 97.0502C621.87 95.9408 621.047 95.0866 619.995 94.4877C618.938 93.8783 617.75 93.571 616.433 93.571C615.11 93.571 613.922 93.8783 612.87 94.4877C611.813 95.0866 610.985 95.9408 610.391 97.0502C609.792 98.1648 609.495 99.4252 609.495 100.842C609.495 102.259 609.792 103.524 610.391 104.634C610.985 105.748 611.813 106.602 612.87 107.196C613.922 107.795 615.11 108.092 616.433 108.092Z" fill="#3B3A3A"/>
<path d="M632.33 110.342C631.814 110.342 631.372 110.154 630.997 109.779C630.632 109.394 630.455 108.925 630.455 108.384C630.455 107.842 630.632 107.394 630.997 107.029C631.372 106.654 631.814 106.467 632.33 106.467C632.856 106.467 633.309 106.654 633.684 107.029C634.059 107.394 634.247 107.842 634.247 108.384C634.247 108.925 634.059 109.394 633.684 109.779C633.309 110.154 632.856 110.342 632.33 110.342Z" fill="#3B3A3A"/>
<path d="M640.902 110.342C640.387 110.342 639.944 110.154 639.569 109.779C639.204 109.394 639.027 108.925 639.027 108.384C639.027 107.842 639.204 107.394 639.569 107.029C639.944 106.654 640.387 106.467 640.902 106.467C641.428 106.467 641.882 106.654 642.257 107.029C642.632 107.394 642.819 107.842 642.819 108.384C642.819 108.925 642.632 109.394 642.257 109.779C641.882 110.154 641.428 110.342 640.902 110.342Z" fill="#3B3A3A"/>
<path d="M537.68 225.372H544.409C546.018 225.372 547.44 225.68 548.68 226.289C549.914 226.904 550.872 227.768 551.555 228.893C552.247 230.008 552.596 231.3 552.596 232.768C552.596 234.258 552.247 235.56 551.555 236.685C550.872 237.8 549.914 238.659 548.68 239.268C547.44 239.883 546.018 240.185 544.409 240.185H537.68V225.372ZM544.242 237.372C545.727 237.372 546.909 236.966 547.784 236.143C548.669 235.31 549.117 234.185 549.117 232.768C549.117 231.367 548.669 230.258 547.784 229.435C546.909 228.602 545.727 228.185 544.242 228.185H541.117V237.372H544.242Z" fill="#3B3A3A"/>
<path d="M554.926 228.789H558.238V240.185H554.926V228.789ZM556.571 227.206C555.972 227.206 555.478 227.034 555.092 226.685C554.717 226.326 554.53 225.888 554.53 225.372C554.53 224.846 554.717 224.409 555.092 224.06C555.478 223.701 555.972 223.518 556.571 223.518C557.181 223.518 557.676 223.695 558.051 224.039C558.436 224.372 558.634 224.8 558.634 225.31C558.634 225.852 558.436 226.305 558.051 226.664C557.676 227.029 557.181 227.206 556.571 227.206Z" fill="#3B3A3A"/>
<path d="M564.919 229.06H567.835V231.602H565.002V240.185H561.689V231.602H559.939V229.06H561.689V228.539C561.689 227.247 562.07 226.221 562.835 225.456C563.611 224.695 564.7 224.31 566.106 224.31C566.59 224.31 567.054 224.367 567.502 224.477C567.945 224.576 568.32 224.721 568.627 224.914L567.752 227.31C567.377 227.05 566.929 226.914 566.419 226.914C565.419 226.914 564.919 227.466 564.919 228.56V229.06Z" fill="#3B3A3A"/>
<path d="M573.106 229.06H576.023V231.602H573.189V240.185H569.877V231.602H568.127V229.06H569.877V228.539C569.877 227.247 570.257 226.221 571.023 225.456C571.799 224.695 572.887 224.31 574.294 224.31C574.778 224.31 575.242 224.367 575.689 224.477C576.132 224.576 576.507 224.721 576.814 224.914L575.939 227.31C575.564 227.05 575.117 226.914 574.606 226.914C573.606 226.914 573.106 227.466 573.106 228.56V229.06Z" fill="#3B3A3A"/>
<path d="M577.669 228.789H580.981V240.185H577.669V228.789ZM579.315 227.206C578.716 227.206 578.221 227.034 577.835 226.685C577.46 226.326 577.273 225.888 577.273 225.372C577.273 224.846 577.46 224.409 577.835 224.06C578.221 223.701 578.716 223.518 579.315 223.518C579.924 223.518 580.419 223.695 580.794 224.039C581.179 224.372 581.377 224.8 581.377 225.31C581.377 225.852 581.179 226.305 580.794 226.664C580.419 227.029 579.924 227.206 579.315 227.206Z" fill="#3B3A3A"/>
<path d="M589.537 240.352C588.328 240.352 587.235 240.102 586.266 239.602C585.308 239.102 584.558 238.409 584.016 237.518C583.474 236.633 583.203 235.622 583.203 234.497C583.203 233.362 583.474 232.346 584.016 231.456C584.558 230.57 585.308 229.872 586.266 229.372C587.235 228.872 588.328 228.622 589.537 228.622C590.745 228.622 591.792 228.872 592.683 229.372C593.584 229.872 594.235 230.591 594.641 231.518L592.078 232.893C591.495 231.852 590.641 231.331 589.516 231.331C588.651 231.331 587.938 231.617 587.37 232.185C586.813 232.758 586.537 233.529 586.537 234.497C586.537 235.471 586.813 236.242 587.37 236.81C587.938 237.367 588.651 237.643 589.516 237.643C590.651 237.643 591.505 237.122 592.078 236.081L594.641 237.477C594.235 238.383 593.584 239.091 592.683 239.602C591.792 240.102 590.745 240.352 589.537 240.352Z" fill="#3B3A3A"/>
<path d="M608.019 228.789V240.185H604.873V238.831C604.441 239.331 603.92 239.716 603.311 239.977C602.712 240.227 602.061 240.352 601.353 240.352C599.853 240.352 598.665 239.924 597.79 239.06C596.915 238.201 596.478 236.924 596.478 235.227V228.789H599.79V234.747C599.79 236.581 600.55 237.497 602.082 237.497C602.873 237.497 603.504 237.242 603.978 236.727C604.462 236.216 604.707 235.451 604.707 234.435V228.789H608.019Z" fill="#3B3A3A"/>
<path d="M611.074 224.477H614.387V240.185H611.074V224.477Z" fill="#3B3A3A"/>
<path d="M624.797 239.643C624.463 239.883 624.057 240.06 623.588 240.185C623.114 240.294 622.62 240.352 622.109 240.352C620.745 240.352 619.693 240.013 618.943 239.331C618.203 238.638 617.838 237.617 617.838 236.268V231.602H616.088V229.06H617.838V226.268H621.151V229.06H623.984V231.602H621.151V236.227C621.151 236.716 621.276 237.091 621.526 237.352C621.776 237.602 622.12 237.727 622.568 237.727C623.094 237.727 623.536 237.591 623.901 237.31L624.797 239.643Z" fill="#3B3A3A"/>
<path d="M637.958 228.789L632.812 240.893C632.281 242.195 631.63 243.112 630.854 243.643C630.088 244.185 629.167 244.456 628.083 244.456C627.5 244.456 626.917 244.362 626.333 244.185C625.75 244.003 625.276 243.747 624.917 243.414L626.125 241.081C626.375 241.299 626.667 241.477 627 241.602C627.333 241.727 627.656 241.789 627.979 241.789C628.437 241.789 628.802 241.674 629.083 241.456C629.359 241.247 629.614 240.883 629.854 240.372L629.896 240.268L624.958 228.789H628.354L631.562 236.518L634.771 228.789H637.958Z" fill="#3B3A3A"/>
<path d="M645.284 228.789H648.597V240.185H645.284V228.789ZM646.93 227.206C646.331 227.206 645.836 227.034 645.451 226.685C645.076 226.326 644.888 225.888 644.888 225.372C644.888 224.846 645.076 224.409 645.451 224.06C645.836 223.701 646.331 223.518 646.93 223.518C647.539 223.518 648.034 223.695 648.409 224.039C648.795 224.372 648.993 224.8 648.993 225.31C648.993 225.852 648.795 226.305 648.409 226.664C648.034 227.029 647.539 227.206 646.93 227.206Z" fill="#3B3A3A"/>
<path d="M658.569 228.622C659.986 228.622 661.121 229.05 661.986 229.893C662.861 230.742 663.298 231.997 663.298 233.664V240.185H659.986V234.164C659.986 233.263 659.788 232.591 659.402 232.143C659.012 231.701 658.444 231.477 657.694 231.477C656.861 231.477 656.194 231.742 655.694 232.268C655.204 232.784 654.965 233.55 654.965 234.56V240.185H651.652V228.789H654.819V230.122C655.246 229.654 655.788 229.284 656.444 229.018C657.095 228.758 657.803 228.622 658.569 228.622Z" fill="#3B3A3A"/>
<path d="M678.988 228.622C680.04 228.622 680.998 228.867 681.863 229.352C682.738 229.841 683.425 230.529 683.925 231.414C684.425 232.289 684.675 233.32 684.675 234.497C684.675 235.664 684.425 236.695 683.925 237.581C683.425 238.456 682.738 239.138 681.863 239.622C680.998 240.112 680.04 240.352 678.988 240.352C677.54 240.352 676.404 239.893 675.571 238.977V244.289H672.259V228.789H675.425V230.102C676.227 229.117 677.415 228.622 678.988 228.622ZM678.425 237.643C679.269 237.643 679.967 237.362 680.509 236.789C681.05 236.221 681.321 235.456 681.321 234.497C681.321 233.539 681.05 232.779 680.509 232.206C679.967 231.622 679.269 231.331 678.425 231.331C677.576 231.331 676.884 231.622 676.342 232.206C675.8 232.779 675.529 233.539 675.529 234.497C675.529 235.456 675.8 236.221 676.342 236.789C676.884 237.362 677.576 237.643 678.425 237.643Z" fill="#3B3A3A"/>
<path d="M686.856 224.477H690.169V240.185H686.856V224.477Z" fill="#3B3A3A"/>
<path d="M697.829 228.622C699.589 228.622 700.943 229.05 701.891 229.893C702.834 230.727 703.308 231.992 703.308 233.685V240.185H700.204V238.768C699.589 239.826 698.438 240.352 696.745 240.352C695.87 240.352 695.105 240.206 694.454 239.914C693.813 239.612 693.329 239.201 692.995 238.685C692.662 238.159 692.495 237.57 692.495 236.914C692.495 235.846 692.891 235.013 693.683 234.414C694.475 233.805 695.704 233.497 697.37 233.497H699.995C699.995 232.779 699.771 232.221 699.329 231.831C698.896 231.445 698.245 231.247 697.37 231.247C696.771 231.247 696.172 231.346 695.579 231.539C694.995 231.737 694.501 231.992 694.1 232.31L692.912 229.997C693.537 229.57 694.277 229.237 695.141 228.997C696.016 228.747 696.912 228.622 697.829 228.622ZM697.558 238.122C698.126 238.122 698.626 237.997 699.058 237.747C699.501 237.487 699.813 237.096 699.995 236.581V235.414H697.745C696.381 235.414 695.704 235.862 695.704 236.747C695.704 237.18 695.87 237.518 696.204 237.768C696.537 238.008 696.985 238.122 697.558 238.122Z" fill="#3B3A3A"/>
<path d="M713.195 228.622C714.611 228.622 715.747 229.05 716.611 229.893C717.486 230.742 717.924 231.997 717.924 233.664V240.185H714.611V234.164C714.611 233.263 714.413 232.591 714.028 232.143C713.637 231.701 713.07 231.477 712.32 231.477C711.486 231.477 710.82 231.742 710.32 232.268C709.83 232.784 709.591 233.55 709.591 234.56V240.185H706.278V228.789H709.445V230.122C709.872 229.654 710.413 229.284 711.07 229.018C711.721 228.758 712.429 228.622 713.195 228.622Z" fill="#3B3A3A"/>
<path d="M727.814 228.622C729.23 228.622 730.366 229.05 731.23 229.893C732.105 230.742 732.543 231.997 732.543 233.664V240.185H729.23V234.164C729.23 233.263 729.032 232.591 728.647 232.143C728.256 231.701 727.689 231.477 726.939 231.477C726.105 231.477 725.439 231.742 724.939 232.268C724.449 232.784 724.209 233.55 724.209 234.56V240.185H720.897V228.789H724.064V230.122C724.491 229.654 725.032 229.284 725.689 229.018C726.34 228.758 727.048 228.622 727.814 228.622Z" fill="#3B3A3A"/>
<path d="M735.516 228.789H738.828V240.185H735.516V228.789ZM737.162 227.206C736.563 227.206 736.068 227.034 735.683 226.685C735.308 226.326 735.12 225.888 735.12 225.372C735.12 224.846 735.308 224.409 735.683 224.06C736.068 223.701 736.563 223.518 737.162 223.518C737.771 223.518 738.266 223.695 738.641 224.039C739.026 224.372 739.224 224.8 739.224 225.31C739.224 225.852 739.026 226.305 738.641 226.664C738.266 227.029 737.771 227.206 737.162 227.206Z" fill="#3B3A3A"/>
<path d="M748.801 228.622C750.217 228.622 751.353 229.05 752.217 229.893C753.092 230.742 753.53 231.997 753.53 233.664V240.185H750.217V234.164C750.217 233.263 750.019 232.591 749.634 232.143C749.243 231.701 748.676 231.477 747.926 231.477C747.092 231.477 746.426 231.742 745.926 232.268C745.436 232.784 745.197 233.55 745.197 234.56V240.185H741.884V228.789H745.051V230.122C745.478 229.654 746.019 229.284 746.676 229.018C747.327 228.758 748.035 228.622 748.801 228.622Z" fill="#3B3A3A"/>
<path d="M768.253 228.789V238.289C768.253 240.372 767.711 241.919 766.628 242.935C765.545 243.945 763.951 244.456 761.857 244.456C760.758 244.456 759.717 244.32 758.732 244.06C757.743 243.794 756.925 243.404 756.274 242.893L757.586 240.518C758.071 240.919 758.675 241.232 759.399 241.456C760.133 241.69 760.868 241.81 761.607 241.81C762.743 241.81 763.586 241.55 764.128 241.039C764.68 240.523 764.961 239.747 764.961 238.706V238.227C764.097 239.175 762.899 239.643 761.357 239.643C760.316 239.643 759.357 239.414 758.482 238.956C757.618 238.497 756.93 237.852 756.42 237.018C755.92 236.185 755.67 235.221 755.67 234.122C755.67 233.039 755.92 232.081 756.42 231.247C756.93 230.414 757.618 229.768 758.482 229.31C759.357 228.852 760.316 228.622 761.357 228.622C763.008 228.622 764.263 229.164 765.128 230.247V228.789H768.253ZM762.003 236.935C762.878 236.935 763.592 236.68 764.149 236.164C764.717 235.638 765.003 234.956 765.003 234.122C765.003 233.289 764.717 232.617 764.149 232.102C763.592 231.591 762.878 231.331 762.003 231.331C761.128 231.331 760.404 231.591 759.836 232.102C759.279 232.617 759.003 233.289 759.003 234.122C759.003 234.956 759.279 235.638 759.836 236.164C760.404 236.68 761.128 236.935 762.003 236.935Z" fill="#3B3A3A"/>
<path d="M784.654 239.643C784.321 239.883 783.914 240.06 783.446 240.185C782.972 240.294 782.477 240.352 781.966 240.352C780.602 240.352 779.55 240.013 778.8 239.331C778.06 238.638 777.696 237.617 777.696 236.268V231.602H775.946V229.06H777.696V226.268H781.008V229.06H783.841V231.602H781.008V236.227C781.008 236.716 781.133 237.091 781.383 237.352C781.633 237.602 781.977 237.727 782.425 237.727C782.951 237.727 783.393 237.591 783.758 237.31L784.654 239.643Z" fill="#3B3A3A"/>
<path d="M793.419 228.622C794.836 228.622 795.971 229.049 796.836 229.893C797.711 230.742 798.149 231.997 798.149 233.664V240.185H794.836V234.164C794.836 233.263 794.638 232.591 794.253 232.143C793.862 231.701 793.294 231.477 792.544 231.477C791.711 231.477 791.044 231.742 790.544 232.268C790.055 232.784 789.815 233.549 789.815 234.56V240.185H786.503V224.477H789.815V229.977C790.242 229.549 790.774 229.216 791.399 228.977C792.024 228.742 792.695 228.622 793.419 228.622Z" fill="#3B3A3A"/>
<path d="M812.288 234.539C812.288 234.581 812.267 234.872 812.226 235.414H803.601C803.752 236.122 804.122 236.685 804.705 237.102C805.288 237.508 806.002 237.706 806.851 237.706C807.445 237.706 807.976 237.622 808.434 237.456C808.892 237.279 809.32 236.992 809.726 236.602L811.476 238.518C810.403 239.742 808.835 240.352 806.767 240.352C805.486 240.352 804.356 240.102 803.372 239.602C802.382 239.102 801.622 238.409 801.08 237.518C800.549 236.633 800.288 235.622 800.288 234.497C800.288 233.372 800.549 232.367 801.08 231.477C801.606 230.576 802.33 229.872 803.247 229.372C804.174 228.872 805.21 228.622 806.351 228.622C807.46 228.622 808.465 228.867 809.372 229.352C810.273 229.826 810.981 230.513 811.497 231.414C812.023 232.305 812.288 233.346 812.288 234.539ZM806.372 231.122C805.622 231.122 804.986 231.341 804.476 231.768C803.976 232.185 803.669 232.763 803.559 233.497H809.163C809.049 232.779 808.736 232.201 808.226 231.768C807.726 231.341 807.106 231.122 806.372 231.122Z" fill="#3B3A3A"/>
<path d="M831.625 234.539C831.625 234.581 831.604 234.872 831.563 235.414H822.938C823.089 236.122 823.459 236.685 824.042 237.102C824.625 237.508 825.339 237.706 826.188 237.706C826.781 237.706 827.313 237.622 827.771 237.456C828.229 237.279 828.656 236.992 829.063 236.602L830.813 238.518C829.74 239.742 828.172 240.352 826.104 240.352C824.823 240.352 823.693 240.102 822.709 239.602C821.719 239.102 820.959 238.409 820.417 237.518C819.886 236.633 819.625 235.622 819.625 234.497C819.625 233.372 819.886 232.367 820.417 231.477C820.943 230.576 821.667 229.872 822.584 229.372C823.511 228.872 824.547 228.622 825.688 228.622C826.797 228.622 827.802 228.867 828.709 229.352C829.61 229.826 830.318 230.513 830.834 231.414C831.36 232.305 831.625 233.346 831.625 234.539ZM825.709 231.122C824.959 231.122 824.323 231.341 823.813 231.768C823.313 232.185 823.005 232.763 822.896 233.497H828.5C828.386 232.779 828.073 232.201 827.563 231.768C827.063 231.341 826.443 231.122 825.709 231.122Z" fill="#3B3A3A"/>
<path d="M841.058 240.185L838.558 236.685L835.975 240.185H832.371L836.746 234.456L832.517 228.789H836.225L838.642 232.122L841.121 228.789H844.621L840.392 234.372L844.788 240.185H841.058Z" fill="#3B3A3A"/>
<path d="M853.125 228.622C854.177 228.622 855.136 228.867 856 229.352C856.875 229.841 857.563 230.529 858.063 231.414C858.563 232.289 858.813 233.32 858.813 234.497C858.813 235.664 858.563 236.695 858.063 237.581C857.563 238.456 856.875 239.138 856 239.622C855.136 240.112 854.177 240.352 853.125 240.352C851.677 240.352 850.542 239.893 849.709 238.977V244.289H846.396V228.789H849.563V230.102C850.365 229.117 851.552 228.622 853.125 228.622ZM852.563 237.643C853.407 237.643 854.105 237.362 854.646 236.789C855.188 236.221 855.459 235.456 855.459 234.497C855.459 233.539 855.188 232.779 854.646 232.206C854.105 231.622 853.407 231.331 852.563 231.331C851.714 231.331 851.021 231.622 850.48 232.206C849.938 232.779 849.667 233.539 849.667 234.497C849.667 235.456 849.938 236.221 850.48 236.789C851.021 237.362 851.714 237.643 852.563 237.643Z" fill="#3B3A3A"/>
<path d="M872.161 234.539C872.161 234.581 872.14 234.872 872.098 235.414H863.473C863.624 236.122 863.994 236.685 864.578 237.102C865.161 237.508 865.874 237.706 866.723 237.706C867.317 237.706 867.848 237.622 868.307 237.456C868.765 237.279 869.192 236.992 869.598 236.602L871.348 238.518C870.275 239.742 868.708 240.352 866.64 240.352C865.359 240.352 864.229 240.102 863.244 239.602C862.255 239.102 861.494 238.409 860.953 237.518C860.421 236.633 860.161 235.622 860.161 234.497C860.161 233.372 860.421 232.367 860.953 231.477C861.479 230.576 862.203 229.872 863.119 229.372C864.046 228.872 865.083 228.622 866.223 228.622C867.333 228.622 868.338 228.867 869.244 229.352C870.145 229.826 870.854 230.513 871.369 231.414C871.895 232.305 872.161 233.346 872.161 234.539ZM866.244 231.122C865.494 231.122 864.859 231.341 864.348 231.768C863.848 232.185 863.541 232.763 863.432 233.497H869.036C868.921 232.779 868.609 232.201 868.098 231.768C867.598 231.341 866.979 231.122 866.244 231.122Z" fill="#3B3A3A"/>
<path d="M881.26 228.622C882.677 228.622 883.813 229.05 884.677 229.893C885.552 230.742 885.99 231.997 885.99 233.664V240.185H882.677V234.164C882.677 233.263 882.479 232.591 882.094 232.143C881.703 231.701 881.135 231.477 880.385 231.477C879.552 231.477 878.885 231.742 878.385 232.268C877.896 232.784 877.656 233.55 877.656 234.56V240.185H874.344V228.789H877.51V230.122C877.938 229.654 878.479 229.284 879.135 229.018C879.786 228.758 880.495 228.622 881.26 228.622Z" fill="#3B3A3A"/>
<path d="M892.796 240.352C891.848 240.352 890.926 240.237 890.025 240.018C889.119 239.784 888.4 239.487 887.859 239.122L888.963 236.747C889.473 237.081 890.088 237.352 890.796 237.56C891.515 237.758 892.223 237.852 892.921 237.852C894.322 237.852 895.025 237.508 895.025 236.81C895.025 236.492 894.827 236.263 894.442 236.122C894.067 235.987 893.484 235.867 892.692 235.768C891.76 235.617 890.989 235.451 890.379 235.268C889.781 235.091 889.26 234.768 888.817 234.31C888.369 233.841 888.15 233.175 888.15 232.31C888.15 231.591 888.348 230.951 888.754 230.393C889.171 229.841 889.775 229.409 890.567 229.102C891.369 228.784 892.322 228.622 893.421 228.622C894.213 228.622 895.004 228.716 895.796 228.893C896.598 229.076 897.265 229.32 897.796 229.622L896.692 231.977C895.692 231.409 894.598 231.122 893.421 231.122C892.713 231.122 892.176 231.227 891.817 231.435C891.468 231.633 891.296 231.883 891.296 232.185C891.296 232.534 891.484 232.784 891.859 232.935C892.244 233.076 892.859 233.206 893.692 233.331C894.619 233.487 895.379 233.654 895.963 233.831C896.557 233.997 897.072 234.32 897.504 234.789C897.947 235.247 898.171 235.893 898.171 236.727C898.171 237.435 897.952 238.07 897.525 238.622C897.109 239.164 896.489 239.591 895.671 239.893C894.864 240.195 893.906 240.352 892.796 240.352Z" fill="#3B3A3A"/>
<path d="M911.364 234.539C911.364 234.581 911.343 234.872 911.301 235.414H902.676C902.827 236.122 903.197 236.685 903.78 237.102C904.364 237.508 905.077 237.706 905.926 237.706C906.52 237.706 907.051 237.622 907.509 237.456C907.968 237.279 908.395 236.992 908.801 236.602L910.551 238.518C909.478 239.742 907.91 240.352 905.843 240.352C904.561 240.352 903.431 240.102 902.447 239.602C901.457 239.102 900.697 238.409 900.155 237.518C899.624 236.633 899.364 235.622 899.364 234.497C899.364 233.372 899.624 232.367 900.155 231.477C900.681 230.576 901.405 229.872 902.322 229.372C903.249 228.872 904.285 228.622 905.426 228.622C906.535 228.622 907.541 228.867 908.447 229.352C909.348 229.826 910.056 230.513 910.572 231.414C911.098 232.305 911.364 233.346 911.364 234.539ZM905.447 231.122C904.697 231.122 904.061 231.341 903.551 231.768C903.051 232.185 902.744 232.763 902.634 233.497H908.239C908.124 232.779 907.811 232.201 907.301 231.768C906.801 231.341 906.181 231.122 905.447 231.122Z" fill="#3B3A3A"/>
<path d="M917.38 240.352C916.432 240.352 915.51 240.237 914.609 240.018C913.703 239.784 912.984 239.487 912.442 239.122L913.547 236.747C914.057 237.081 914.672 237.352 915.38 237.56C916.099 237.758 916.807 237.852 917.505 237.852C918.906 237.852 919.609 237.508 919.609 236.81C919.609 236.492 919.411 236.263 919.026 236.122C918.651 235.987 918.067 235.867 917.276 235.768C916.343 235.617 915.573 235.451 914.963 235.268C914.364 235.091 913.843 234.768 913.401 234.31C912.953 233.841 912.734 233.175 912.734 232.31C912.734 231.591 912.932 230.951 913.338 230.393C913.755 229.841 914.359 229.409 915.151 229.102C915.953 228.784 916.906 228.622 918.005 228.622C918.797 228.622 919.588 228.716 920.38 228.893C921.182 229.076 921.849 229.32 922.38 229.622L921.276 231.977C920.276 231.409 919.182 231.122 918.005 231.122C917.297 231.122 916.76 231.227 916.401 231.435C916.052 231.633 915.88 231.883 915.88 232.185C915.88 232.534 916.067 232.784 916.442 232.935C916.828 233.076 917.442 233.206 918.276 233.331C919.203 233.487 919.963 233.654 920.547 233.831C921.14 233.997 921.656 234.32 922.088 234.789C922.531 235.247 922.755 235.893 922.755 236.727C922.755 237.435 922.536 238.07 922.109 238.622C921.692 239.164 921.073 239.591 920.255 239.893C919.448 240.195 918.489 240.352 917.38 240.352Z" fill="#3B3A3A"/>
<path d="M135.783 688.452C133.668 688.452 132.022 687.868 130.845 686.702C129.663 685.535 129.074 683.863 129.074 681.681V673.389H132.512V681.556C132.512 684.212 133.606 685.535 135.804 685.535C136.887 685.535 137.705 685.217 138.262 684.577C138.83 683.941 139.116 682.931 139.116 681.556V673.389H142.491V681.681C142.491 683.863 141.897 685.535 140.72 686.702C139.554 687.868 137.908 688.452 135.783 688.452Z" fill="#3B3A3A"/>
<path d="M152.558 676.639C153.975 676.639 155.11 677.066 155.975 677.91C156.85 678.759 157.287 680.014 157.287 681.681V688.202H153.975V682.181C153.975 681.28 153.777 680.608 153.392 680.16C153.001 679.717 152.433 679.493 151.683 679.493C150.85 679.493 150.183 679.759 149.683 680.285C149.194 680.801 148.954 681.566 148.954 682.577V688.202H145.642V676.806H148.808V678.139C149.235 677.67 149.777 677.301 150.433 677.035C151.084 676.775 151.793 676.639 152.558 676.639Z" fill="#3B3A3A"/>
<path d="M166.99 676.639C168.042 676.639 169 676.884 169.865 677.368C170.74 677.858 171.427 678.545 171.927 679.431C172.427 680.306 172.677 681.337 172.677 682.514C172.677 683.681 172.427 684.712 171.927 685.597C171.427 686.472 170.74 687.155 169.865 687.639C169 688.129 168.042 688.368 166.99 688.368C165.542 688.368 164.406 687.91 163.573 686.993V692.306H160.26V676.806H163.427V678.118C164.229 677.134 165.417 676.639 166.99 676.639ZM166.427 685.66C167.271 685.66 167.969 685.379 168.51 684.806C169.052 684.238 169.323 683.472 169.323 682.514C169.323 681.556 169.052 680.795 168.51 680.222C167.969 679.639 167.271 679.347 166.427 679.347C165.578 679.347 164.885 679.639 164.344 680.222C163.802 680.795 163.531 681.556 163.531 682.514C163.531 683.472 163.802 684.238 164.344 684.806C164.885 685.379 165.578 685.66 166.427 685.66Z" fill="#3B3A3A"/>
<path d="M178.025 678.327C178.41 677.775 178.942 677.358 179.608 677.077C180.285 676.785 181.056 676.639 181.921 676.639V679.702C181.556 679.676 181.317 679.66 181.192 679.66C180.244 679.66 179.504 679.926 178.963 680.452C178.431 680.983 178.171 681.775 178.171 682.827V688.202H174.858V676.806H178.025V678.327Z" fill="#3B3A3A"/>
<path d="M195.144 682.556C195.144 682.597 195.123 682.889 195.081 683.431H186.456C186.607 684.139 186.977 684.702 187.56 685.118C188.144 685.525 188.857 685.722 189.706 685.722C190.3 685.722 190.831 685.639 191.289 685.472C191.748 685.295 192.175 685.009 192.581 684.618L194.331 686.535C193.258 687.759 191.69 688.368 189.623 688.368C188.341 688.368 187.211 688.118 186.227 687.618C185.237 687.118 184.477 686.426 183.935 685.535C183.404 684.65 183.144 683.639 183.144 682.514C183.144 681.389 183.404 680.384 183.935 679.493C184.461 678.592 185.185 677.889 186.102 677.389C187.029 676.889 188.065 676.639 189.206 676.639C190.315 676.639 191.321 676.884 192.227 677.368C193.128 677.842 193.836 678.53 194.352 679.431C194.878 680.321 195.144 681.363 195.144 682.556ZM189.227 679.139C188.477 679.139 187.841 679.358 187.331 679.785C186.831 680.202 186.524 680.78 186.414 681.514H192.019C191.904 680.795 191.591 680.217 191.081 679.785C190.581 679.358 189.961 679.139 189.227 679.139Z" fill="#3B3A3A"/>
<path d="M208.931 672.493V688.202H205.785V686.889C204.962 687.879 203.774 688.368 202.222 688.368C201.149 688.368 200.181 688.134 199.306 687.66C198.441 687.176 197.764 686.488 197.264 685.597C196.774 684.712 196.535 683.681 196.535 682.514C196.535 681.337 196.774 680.301 197.264 679.41C197.764 678.524 198.441 677.842 199.306 677.368C200.181 676.884 201.149 676.639 202.222 676.639C203.665 676.639 204.795 677.097 205.618 678.014V672.493H208.931ZM202.785 685.66C203.618 685.66 204.306 685.379 204.847 684.806C205.399 684.238 205.681 683.472 205.681 682.514C205.681 681.556 205.399 680.795 204.847 680.222C204.306 679.639 203.618 679.347 202.785 679.347C201.936 679.347 201.233 679.639 200.681 680.222C200.139 680.795 199.868 681.556 199.868 682.514C199.868 683.472 200.139 684.238 200.681 684.806C201.233 685.379 201.936 685.66 202.785 685.66Z" fill="#3B3A3A"/>
<path d="M211.967 676.806H215.279V688.202H211.967V676.806ZM213.612 675.222C213.014 675.222 212.519 675.051 212.133 674.702C211.758 674.342 211.571 673.905 211.571 673.389C211.571 672.863 211.758 672.426 212.133 672.077C212.519 671.717 213.014 671.535 213.612 671.535C214.222 671.535 214.717 671.712 215.092 672.056C215.477 672.389 215.675 672.816 215.675 673.327C215.675 673.868 215.477 674.321 215.092 674.681C214.717 675.045 214.222 675.222 213.612 675.222Z" fill="#3B3A3A"/>
<path d="M223.835 688.368C222.626 688.368 221.532 688.118 220.564 687.618C219.605 687.118 218.855 686.426 218.314 685.535C217.772 684.65 217.501 683.639 217.501 682.514C217.501 681.379 217.772 680.363 218.314 679.472C218.855 678.587 219.605 677.889 220.564 677.389C221.532 676.889 222.626 676.639 223.835 676.639C225.043 676.639 226.09 676.889 226.98 677.389C227.881 677.889 228.532 678.608 228.939 679.535L226.376 680.91C225.793 679.868 224.939 679.347 223.814 679.347C222.949 679.347 222.236 679.634 221.668 680.202C221.111 680.775 220.835 681.545 220.835 682.514C220.835 683.488 221.111 684.259 221.668 684.827C222.236 685.384 222.949 685.66 223.814 685.66C224.949 685.66 225.803 685.139 226.376 684.097L228.939 685.493C228.532 686.4 227.881 687.108 226.98 687.618C226.09 688.118 225.043 688.368 223.835 688.368Z" fill="#3B3A3A"/>
<path d="M238.192 687.66C237.859 687.899 237.453 688.077 236.984 688.202C236.51 688.311 236.015 688.368 235.505 688.368C234.14 688.368 233.088 688.03 232.338 687.347C231.598 686.655 231.234 685.634 231.234 684.285V679.618H229.484V677.077H231.234V674.285H234.546V677.077H237.38V679.618H234.546V684.243C234.546 684.733 234.671 685.108 234.921 685.368C235.171 685.618 235.515 685.743 235.963 685.743C236.489 685.743 236.932 685.608 237.296 685.327L238.192 687.66Z" fill="#3B3A3A"/>
<path d="M244.645 676.639C246.406 676.639 247.76 677.066 248.708 677.91C249.65 678.743 250.124 680.009 250.124 681.702V688.202H247.02V686.785C246.406 687.842 245.254 688.368 243.562 688.368C242.687 688.368 241.921 688.222 241.27 687.931C240.629 687.629 240.145 687.217 239.812 686.702C239.478 686.176 239.312 685.587 239.312 684.931C239.312 683.863 239.708 683.03 240.499 682.431C241.291 681.821 242.52 681.514 244.187 681.514H246.812C246.812 680.795 246.588 680.238 246.145 679.847C245.713 679.462 245.062 679.264 244.187 679.264C243.588 679.264 242.989 679.363 242.395 679.556C241.812 679.754 241.317 680.009 240.916 680.327L239.728 678.014C240.353 677.587 241.093 677.254 241.958 677.014C242.833 676.764 243.728 676.639 244.645 676.639ZM244.374 686.139C244.942 686.139 245.442 686.014 245.874 685.764C246.317 685.504 246.629 685.113 246.812 684.597V683.431H244.562C243.197 683.431 242.52 683.879 242.52 684.764C242.52 685.196 242.687 685.535 243.02 685.785C243.353 686.025 243.801 686.139 244.374 686.139Z" fill="#3B3A3A"/>
<path d="M259.824 676.639C260.876 676.639 261.834 676.884 262.699 677.368C263.574 677.858 264.261 678.545 264.761 679.431C265.261 680.306 265.511 681.337 265.511 682.514C265.511 683.681 265.261 684.712 264.761 685.597C264.261 686.472 263.574 687.155 262.699 687.639C261.834 688.129 260.876 688.368 259.824 688.368C258.251 688.368 257.063 687.879 256.261 686.889V688.202H253.094V672.493H256.407V678.014C257.24 677.097 258.376 676.639 259.824 676.639ZM259.261 685.66C260.105 685.66 260.803 685.379 261.344 684.806C261.886 684.238 262.157 683.472 262.157 682.514C262.157 681.556 261.886 680.795 261.344 680.222C260.803 679.639 260.105 679.347 259.261 679.347C258.412 679.347 257.719 679.639 257.178 680.222C256.636 680.795 256.365 681.556 256.365 682.514C256.365 683.472 256.636 684.238 257.178 684.806C257.719 685.379 258.412 685.66 259.261 685.66Z" fill="#3B3A3A"/>
<path d="M267.692 676.806H271.005V688.202H267.692V676.806ZM269.338 675.222C268.739 675.222 268.244 675.051 267.859 674.702C267.484 674.342 267.296 673.905 267.296 673.389C267.296 672.863 267.484 672.426 267.859 672.077C268.244 671.717 268.739 671.535 269.338 671.535C269.947 671.535 270.442 671.712 270.817 672.056C271.203 672.389 271.401 672.816 271.401 673.327C271.401 673.868 271.203 674.321 270.817 674.681C270.442 675.045 269.947 675.222 269.338 675.222Z" fill="#3B3A3A"/>
<path d="M274.061 672.493H277.373V688.202H274.061V672.493Z" fill="#3B3A3A"/>
<path d="M280.429 676.806H283.741V688.202H280.429V676.806ZM282.074 675.222C281.475 675.222 280.981 675.051 280.595 674.702C280.22 674.342 280.033 673.905 280.033 673.389C280.033 672.863 280.22 672.426 280.595 672.077C280.981 671.717 281.475 671.535 282.074 671.535C282.684 671.535 283.179 671.712 283.554 672.056C283.939 672.389 284.137 672.816 284.137 673.327C284.137 673.868 283.939 674.321 283.554 674.681C283.179 675.045 282.684 675.222 282.074 675.222Z" fill="#3B3A3A"/>
<path d="M294.151 687.66C293.817 687.899 293.411 688.077 292.942 688.202C292.468 688.311 291.974 688.368 291.463 688.368C290.099 688.368 289.047 688.03 288.297 687.347C287.557 686.655 287.192 685.634 287.192 684.285V679.618H285.442V677.077H287.192V674.285H290.505V677.077H293.338V679.618H290.505V684.243C290.505 684.733 290.63 685.108 290.88 685.368C291.13 685.618 291.474 685.743 291.922 685.743C292.448 685.743 292.89 685.608 293.255 685.327L294.151 687.66Z" fill="#3B3A3A"/>
<path d="M307.312 676.806L302.166 688.91C301.635 690.212 300.984 691.129 300.208 691.66C299.442 692.202 298.52 692.472 297.437 692.472C296.854 692.472 296.27 692.379 295.687 692.202C295.104 692.019 294.63 691.764 294.27 691.431L295.479 689.097C295.729 689.316 296.02 689.493 296.354 689.618C296.687 689.743 297.01 689.806 297.333 689.806C297.791 689.806 298.156 689.691 298.437 689.472C298.713 689.264 298.968 688.899 299.208 688.389L299.249 688.285L294.312 676.806H297.708L300.916 684.535L304.124 676.806H307.312Z" fill="#3B3A3A"/>
<path d="M320.642 676.806H323.955V688.202H320.642V676.806ZM322.288 675.222C321.689 675.222 321.194 675.051 320.809 674.702C320.434 674.342 320.246 673.905 320.246 673.389C320.246 672.863 320.434 672.426 320.809 672.077C321.194 671.717 321.689 671.535 322.288 671.535C322.897 671.535 323.392 671.712 323.767 672.056C324.153 672.389 324.351 672.816 324.351 673.327C324.351 673.868 324.153 674.321 323.767 674.681C323.392 675.045 322.897 675.222 322.288 675.222Z" fill="#3B3A3A"/>
<path d="M333.927 676.639C335.344 676.639 336.479 677.066 337.344 677.91C338.219 678.759 338.656 680.014 338.656 681.681V688.202H335.344V682.181C335.344 681.28 335.146 680.608 334.76 680.16C334.37 679.717 333.802 679.493 333.052 679.493C332.219 679.493 331.552 679.759 331.052 680.285C330.562 680.801 330.323 681.566 330.323 682.577V688.202H327.01V676.806H330.177V678.139C330.604 677.67 331.146 677.301 331.802 677.035C332.453 676.775 333.161 676.639 333.927 676.639Z" fill="#3B3A3A"/>
<path d="M248.481 705.556C248.481 705.597 248.46 705.889 248.418 706.431H239.793C239.944 707.139 240.314 707.702 240.897 708.118C241.481 708.525 242.194 708.722 243.043 708.722C243.637 708.722 244.168 708.639 244.627 708.472C245.085 708.295 245.512 708.009 245.918 707.618L247.668 709.535C246.595 710.759 245.028 711.368 242.96 711.368C241.679 711.368 240.548 711.118 239.564 710.618C238.574 710.118 237.814 709.426 237.272 708.535C236.741 707.65 236.481 706.639 236.481 705.514C236.481 704.389 236.741 703.384 237.272 702.493C237.798 701.592 238.522 700.889 239.439 700.389C240.366 699.889 241.403 699.639 242.543 699.639C243.653 699.639 244.658 699.884 245.564 700.368C246.465 700.842 247.173 701.53 247.689 702.431C248.215 703.321 248.481 704.363 248.481 705.556ZM242.564 702.139C241.814 702.139 241.179 702.358 240.668 702.785C240.168 703.202 239.861 703.78 239.752 704.514H245.356C245.241 703.795 244.929 703.217 244.418 702.785C243.918 702.358 243.298 702.139 242.564 702.139Z" fill="#3B3A3A"/>
<path d="M257.914 711.202L255.414 707.702L252.83 711.202H249.226L253.601 705.472L249.372 699.806H253.08L255.497 703.139L257.976 699.806H261.476L257.247 705.389L261.643 711.202H257.914Z" fill="#3B3A3A"/>
<path d="M269.981 699.639C271.033 699.639 271.991 699.884 272.856 700.368C273.731 700.858 274.418 701.545 274.918 702.431C275.418 703.306 275.668 704.337 275.668 705.514C275.668 706.681 275.418 707.712 274.918 708.597C274.418 709.472 273.731 710.155 272.856 710.639C271.991 711.129 271.033 711.368 269.981 711.368C268.533 711.368 267.398 710.91 266.564 709.993V715.306H263.252V699.806H266.418V701.118C267.22 700.134 268.408 699.639 269.981 699.639ZM269.418 708.66C270.262 708.66 270.96 708.379 271.502 707.806C272.043 707.238 272.314 706.472 272.314 705.514C272.314 704.556 272.043 703.795 271.502 703.222C270.96 702.639 270.262 702.347 269.418 702.347C268.569 702.347 267.877 702.639 267.335 703.222C266.793 703.795 266.523 704.556 266.523 705.514C266.523 706.472 266.793 707.238 267.335 707.806C267.877 708.379 268.569 708.66 269.418 708.66Z" fill="#3B3A3A"/>
<path d="M289.016 705.556C289.016 705.597 288.996 705.889 288.954 706.431H280.329C280.48 707.139 280.85 707.702 281.433 708.118C282.016 708.525 282.73 708.722 283.579 708.722C284.173 708.722 284.704 708.639 285.162 708.472C285.621 708.295 286.048 708.009 286.454 707.618L288.204 709.535C287.131 710.759 285.563 711.368 283.496 711.368C282.214 711.368 281.084 711.118 280.1 710.618C279.11 710.118 278.35 709.426 277.808 708.535C277.277 707.65 277.016 706.639 277.016 705.514C277.016 704.389 277.277 703.384 277.808 702.493C278.334 701.592 279.058 700.889 279.975 700.389C280.902 699.889 281.938 699.639 283.079 699.639C284.188 699.639 285.193 699.884 286.1 700.368C287.001 700.842 287.709 701.53 288.225 702.431C288.751 703.321 289.016 704.363 289.016 705.556ZM283.1 702.139C282.35 702.139 281.714 702.358 281.204 702.785C280.704 703.202 280.397 703.78 280.287 704.514H285.891C285.777 703.795 285.464 703.217 284.954 702.785C284.454 702.358 283.834 702.139 283.1 702.139Z" fill="#3B3A3A"/>
<path d="M298.116 699.639C299.533 699.639 300.668 700.066 301.533 700.91C302.408 701.759 302.845 703.014 302.845 704.681V711.202H299.533V705.181C299.533 704.28 299.335 703.608 298.949 703.16C298.559 702.717 297.991 702.493 297.241 702.493C296.408 702.493 295.741 702.759 295.241 703.285C294.751 703.801 294.512 704.566 294.512 705.577V711.202H291.199V699.806H294.366V701.139C294.793 700.67 295.335 700.301 295.991 700.035C296.642 699.775 297.35 699.639 298.116 699.639Z" fill="#3B3A3A"/>
<path d="M309.652 711.368C308.704 711.368 307.782 711.254 306.881 711.035C305.975 710.801 305.256 710.504 304.714 710.139L305.818 707.764C306.329 708.097 306.943 708.368 307.652 708.577C308.37 708.775 309.079 708.868 309.777 708.868C311.178 708.868 311.881 708.525 311.881 707.827C311.881 707.509 311.683 707.28 311.297 707.139C310.922 707.004 310.339 706.884 309.547 706.785C308.615 706.634 307.844 706.467 307.235 706.285C306.636 706.108 306.115 705.785 305.672 705.327C305.225 704.858 305.006 704.191 305.006 703.327C305.006 702.608 305.204 701.967 305.61 701.41C306.027 700.858 306.631 700.426 307.422 700.118C308.225 699.801 309.178 699.639 310.277 699.639C311.068 699.639 311.86 699.733 312.652 699.91C313.454 700.092 314.12 700.337 314.652 700.639L313.547 702.993C312.547 702.426 311.454 702.139 310.277 702.139C309.568 702.139 309.032 702.243 308.672 702.452C308.323 702.65 308.152 702.9 308.152 703.202C308.152 703.551 308.339 703.801 308.714 703.952C309.1 704.092 309.714 704.222 310.547 704.347C311.475 704.504 312.235 704.67 312.818 704.847C313.412 705.014 313.928 705.337 314.36 705.806C314.803 706.264 315.027 706.91 315.027 707.743C315.027 708.452 314.808 709.087 314.381 709.639C313.964 710.181 313.344 710.608 312.527 710.91C311.719 711.212 310.761 711.368 309.652 711.368Z" fill="#3B3A3A"/>
<path d="M328.219 705.556C328.219 705.597 328.198 705.889 328.156 706.431H319.531C319.683 707.139 320.052 707.702 320.636 708.118C321.219 708.525 321.933 708.722 322.781 708.722C323.375 708.722 323.906 708.639 324.365 708.472C324.823 708.295 325.25 708.009 325.656 707.618L327.406 709.535C326.334 710.759 324.766 711.368 322.698 711.368C321.417 711.368 320.287 711.118 319.302 710.618C318.313 710.118 317.552 709.426 317.011 708.535C316.479 707.65 316.219 706.639 316.219 705.514C316.219 704.389 316.479 703.384 317.011 702.493C317.537 701.592 318.261 700.889 319.177 700.389C320.104 699.889 321.141 699.639 322.281 699.639C323.391 699.639 324.396 699.884 325.302 700.368C326.203 700.842 326.912 701.53 327.427 702.431C327.953 703.321 328.219 704.363 328.219 705.556ZM322.302 702.139C321.552 702.139 320.917 702.358 320.406 702.785C319.906 703.202 319.599 703.78 319.49 704.514H325.094C324.979 703.795 324.667 703.217 324.156 702.785C323.656 702.358 323.037 702.139 322.302 702.139Z" fill="#3B3A3A"/>
<path d="M334.235 711.368C333.287 711.368 332.366 711.254 331.465 711.035C330.558 710.801 329.84 710.504 329.298 710.139L330.402 707.764C330.912 708.097 331.527 708.368 332.235 708.577C332.954 708.775 333.662 708.868 334.36 708.868C335.761 708.868 336.465 708.525 336.465 707.827C336.465 707.509 336.267 707.28 335.881 707.139C335.506 707.004 334.923 706.884 334.131 706.785C333.199 706.634 332.428 706.467 331.819 706.285C331.22 706.108 330.699 705.785 330.256 705.327C329.808 704.858 329.59 704.191 329.59 703.327C329.59 702.608 329.787 701.967 330.194 701.41C330.61 700.858 331.215 700.426 332.006 700.118C332.808 699.801 333.761 699.639 334.86 699.639C335.652 699.639 336.444 699.733 337.235 699.91C338.037 700.092 338.704 700.337 339.235 700.639L338.131 702.993C337.131 702.426 336.037 702.139 334.86 702.139C334.152 702.139 333.616 702.243 333.256 702.452C332.907 702.65 332.735 702.9 332.735 703.202C332.735 703.551 332.923 703.801 333.298 703.952C333.683 704.092 334.298 704.222 335.131 704.347C336.058 704.504 336.819 704.67 337.402 704.847C337.996 705.014 338.511 705.337 338.944 705.806C339.386 706.264 339.61 706.91 339.61 707.743C339.61 708.452 339.392 709.087 338.965 709.639C338.548 710.181 337.928 710.608 337.11 710.91C336.303 711.212 335.345 711.368 334.235 711.368Z" fill="#3B3A3A"/>
<path d="M699.678 643.035H703.116V655.056H710.553V657.847H699.678V643.035Z" fill="#3B3A3A"/>
<path d="M716.832 646.285C718.592 646.285 719.946 646.712 720.894 647.556C721.837 648.389 722.311 649.655 722.311 651.347V657.847H719.207V656.431C718.592 657.488 717.441 658.014 715.748 658.014C714.873 658.014 714.108 657.868 713.457 657.576C712.816 657.274 712.332 656.863 711.998 656.347C711.665 655.821 711.498 655.233 711.498 654.576C711.498 653.509 711.894 652.675 712.686 652.076C713.477 651.467 714.707 651.16 716.373 651.16H718.998C718.998 650.441 718.774 649.884 718.332 649.493C717.899 649.108 717.248 648.91 716.373 648.91C715.774 648.91 715.175 649.009 714.582 649.201C713.998 649.399 713.503 649.655 713.102 649.972L711.915 647.66C712.54 647.233 713.28 646.899 714.144 646.66C715.019 646.41 715.915 646.285 716.832 646.285ZM716.561 655.785C717.128 655.785 717.628 655.66 718.061 655.41C718.503 655.149 718.816 654.759 718.998 654.243V653.076H716.748C715.384 653.076 714.707 653.524 714.707 654.41C714.707 654.842 714.873 655.181 715.207 655.431C715.54 655.67 715.988 655.785 716.561 655.785Z" fill="#3B3A3A"/>
<path d="M730.781 658.014C729.573 658.014 728.479 657.764 727.51 657.264C726.552 656.764 725.802 656.071 725.26 655.181C724.718 654.295 724.448 653.285 724.448 652.16C724.448 651.024 724.718 650.009 725.26 649.118C725.802 648.233 726.552 647.535 727.51 647.035C728.479 646.535 729.573 646.285 730.781 646.285C731.989 646.285 733.036 646.535 733.927 647.035C734.828 647.535 735.479 648.254 735.885 649.181L733.323 650.556C732.739 649.514 731.885 648.993 730.76 648.993C729.895 648.993 729.182 649.28 728.614 649.847C728.057 650.42 727.781 651.191 727.781 652.16C727.781 653.134 728.057 653.905 728.614 654.472C729.182 655.03 729.895 655.306 730.76 655.306C731.895 655.306 732.75 654.785 733.323 653.743L735.885 655.139C735.479 656.045 734.828 656.754 733.927 657.264C733.036 657.764 731.989 658.014 730.781 658.014Z" fill="#3B3A3A"/>
<path d="M742.68 653.389L741.097 654.951V657.847H737.784V642.139H741.097V651.035L745.909 646.451H749.847L745.118 651.285L750.284 657.847H746.284L742.68 653.389Z" fill="#3B3A3A"/>
<path d="M763.151 658.014C761.953 658.014 760.881 657.764 759.922 657.264C758.974 656.764 758.235 656.071 757.693 655.181C757.162 654.295 756.901 653.285 756.901 652.16C756.901 651.024 757.162 650.009 757.693 649.118C758.235 648.233 758.974 647.535 759.922 647.035C760.881 646.535 761.953 646.285 763.151 646.285C764.36 646.285 765.433 646.535 766.381 647.035C767.323 647.535 768.058 648.233 768.589 649.118C769.131 650.009 769.401 651.024 769.401 652.16C769.401 653.285 769.131 654.295 768.589 655.181C768.058 656.071 767.323 656.764 766.381 657.264C765.433 657.764 764.36 658.014 763.151 658.014ZM763.151 655.306C763.995 655.306 764.693 655.024 765.235 654.451C765.776 653.884 766.047 653.118 766.047 652.16C766.047 651.201 765.776 650.441 765.235 649.868C764.693 649.285 763.995 648.993 763.151 648.993C762.302 648.993 761.599 649.285 761.047 649.868C760.506 650.441 760.235 651.201 760.235 652.16C760.235 653.118 760.506 653.884 761.047 654.451C761.599 655.024 762.302 655.306 763.151 655.306Z" fill="#3B3A3A"/>
<path d="M775.217 646.722H778.134V649.264H775.3V657.847H771.988V649.264H770.238V646.722H771.988V646.201C771.988 644.91 772.368 643.884 773.134 643.118C773.91 642.358 774.998 641.972 776.404 641.972C776.889 641.972 777.352 642.03 777.8 642.139C778.243 642.238 778.618 642.384 778.925 642.576L778.05 644.972C777.675 644.712 777.227 644.576 776.717 644.576C775.717 644.576 775.217 645.129 775.217 646.222V646.722Z" fill="#3B3A3A"/>
<path d="M790.663 653.389L789.079 654.951V657.847H785.767V642.139H789.079V651.035L793.892 646.451H797.829L793.1 651.285L798.267 657.847H794.267L790.663 653.389Z" fill="#3B3A3A"/>
<path d="M806.647 646.285C808.063 646.285 809.199 646.712 810.063 647.556C810.938 648.405 811.376 649.66 811.376 651.326V657.847H808.063V651.826C808.063 650.925 807.865 650.254 807.48 649.806C807.089 649.363 806.522 649.139 805.772 649.139C804.938 649.139 804.272 649.405 803.772 649.931C803.282 650.446 803.042 651.212 803.042 652.222V657.847H799.73V646.451H802.897V647.785C803.324 647.316 803.865 646.946 804.522 646.681C805.173 646.42 805.881 646.285 806.647 646.285Z" fill="#3B3A3A"/>
<path d="M819.766 658.014C818.568 658.014 817.495 657.764 816.536 657.264C815.589 656.764 814.849 656.071 814.307 655.181C813.776 654.295 813.516 653.285 813.516 652.16C813.516 651.024 813.776 650.009 814.307 649.118C814.849 648.233 815.589 647.535 816.536 647.035C817.495 646.535 818.568 646.285 819.766 646.285C820.974 646.285 822.047 646.535 822.995 647.035C823.937 647.535 824.672 648.233 825.203 649.118C825.745 650.009 826.016 651.024 826.016 652.16C826.016 653.285 825.745 654.295 825.203 655.181C824.672 656.071 823.937 656.764 822.995 657.264C822.047 657.764 820.974 658.014 819.766 658.014ZM819.766 655.306C820.609 655.306 821.307 655.024 821.849 654.451C822.391 653.884 822.661 653.118 822.661 652.16C822.661 651.201 822.391 650.441 821.849 649.868C821.307 649.285 820.609 648.993 819.766 648.993C818.917 648.993 818.214 649.285 817.661 649.868C817.12 650.441 816.849 651.201 816.849 652.16C816.849 653.118 817.12 653.884 817.661 654.451C818.214 655.024 818.917 655.306 819.766 655.306Z" fill="#3B3A3A"/>
<path d="M846.498 646.451L842.373 657.847H839.185L836.644 650.785L833.998 657.847H830.81L826.706 646.451H829.81L832.498 654.16L835.31 646.451H838.102L840.81 654.16L843.581 646.451H846.498Z" fill="#3B3A3A"/>
<path d="M848.03 642.139H851.342V657.847H848.03V642.139Z" fill="#3B3A3A"/>
<path d="M865.564 652.201C865.564 652.243 865.544 652.535 865.502 653.076H856.877C857.028 653.785 857.398 654.347 857.981 654.764C858.564 655.17 859.278 655.368 860.127 655.368C860.721 655.368 861.252 655.285 861.71 655.118C862.169 654.941 862.596 654.655 863.002 654.264L864.752 656.181C863.679 657.405 862.111 658.014 860.044 658.014C858.762 658.014 857.632 657.764 856.648 657.264C855.658 656.764 854.898 656.071 854.356 655.181C853.825 654.295 853.564 653.285 853.564 652.16C853.564 651.035 853.825 650.03 854.356 649.139C854.882 648.238 855.606 647.535 856.523 647.035C857.45 646.535 858.486 646.285 859.627 646.285C860.736 646.285 861.742 646.53 862.648 647.014C863.549 647.488 864.257 648.175 864.773 649.076C865.299 649.967 865.564 651.009 865.564 652.201ZM859.648 648.785C858.898 648.785 858.262 649.004 857.752 649.431C857.252 649.847 856.945 650.425 856.835 651.16H862.439C862.325 650.441 862.012 649.863 861.502 649.431C861.002 649.004 860.382 648.785 859.648 648.785Z" fill="#3B3A3A"/>
<path d="M879.352 642.139V657.847H876.206V656.535C875.383 657.524 874.196 658.014 872.644 658.014C871.571 658.014 870.602 657.78 869.727 657.306C868.862 656.821 868.185 656.134 867.685 655.243C867.196 654.358 866.956 653.326 866.956 652.16C866.956 650.983 867.196 649.946 867.685 649.056C868.185 648.17 868.862 647.488 869.727 647.014C870.602 646.53 871.571 646.285 872.644 646.285C874.086 646.285 875.216 646.743 876.039 647.66V642.139H879.352ZM873.206 655.306C874.039 655.306 874.727 655.024 875.269 654.451C875.821 653.884 876.102 653.118 876.102 652.16C876.102 651.201 875.821 650.441 875.269 649.868C874.727 649.285 874.039 648.993 873.206 648.993C872.357 648.993 871.654 649.285 871.102 649.868C870.56 650.441 870.289 651.201 870.289 652.16C870.289 653.118 870.56 653.884 871.102 654.451C871.654 655.024 872.357 655.306 873.206 655.306Z" fill="#3B3A3A"/>
<path d="M894.138 646.451V655.951C894.138 658.035 893.596 659.582 892.513 660.597C891.429 661.608 889.836 662.118 887.742 662.118C886.643 662.118 885.601 661.983 884.617 661.722C883.627 661.457 882.81 661.066 882.159 660.556L883.471 658.181C883.955 658.582 884.56 658.894 885.284 659.118C886.018 659.352 886.752 659.472 887.492 659.472C888.627 659.472 889.471 659.212 890.013 658.701C890.565 658.186 890.846 657.41 890.846 656.368V655.889C889.982 656.837 888.784 657.306 887.242 657.306C886.2 657.306 885.242 657.076 884.367 656.618C883.502 656.16 882.815 655.514 882.304 654.681C881.804 653.847 881.554 652.884 881.554 651.785C881.554 650.701 881.804 649.743 882.304 648.91C882.815 648.076 883.502 647.431 884.367 646.972C885.242 646.514 886.2 646.285 887.242 646.285C888.893 646.285 890.148 646.826 891.013 647.91V646.451H894.138ZM887.888 654.597C888.763 654.597 889.476 654.342 890.034 653.826C890.601 653.3 890.888 652.618 890.888 651.785C890.888 650.951 890.601 650.28 890.034 649.764C889.476 649.254 888.763 648.993 887.888 648.993C887.013 648.993 886.289 649.254 885.721 649.764C885.164 650.28 884.888 650.951 884.888 651.785C884.888 652.618 885.164 653.3 885.721 653.826C886.289 654.342 887.013 654.597 887.888 654.597Z" fill="#3B3A3A"/>
<path d="M908.364 652.201C908.364 652.243 908.343 652.535 908.301 653.076H899.676C899.827 653.785 900.197 654.347 900.78 654.764C901.364 655.17 902.077 655.368 902.926 655.368C903.52 655.368 904.051 655.285 904.51 655.118C904.968 654.941 905.395 654.655 905.801 654.264L907.551 656.181C906.478 657.405 904.911 658.014 902.843 658.014C901.562 658.014 900.431 657.764 899.447 657.264C898.458 656.764 897.697 656.071 897.155 655.181C896.624 654.295 896.364 653.285 896.364 652.16C896.364 651.035 896.624 650.03 897.155 649.139C897.681 648.238 898.405 647.535 899.322 647.035C900.249 646.535 901.286 646.285 902.426 646.285C903.536 646.285 904.541 646.53 905.447 647.014C906.348 647.488 907.056 648.175 907.572 649.076C908.098 649.967 908.364 651.009 908.364 652.201ZM902.447 648.785C901.697 648.785 901.062 649.004 900.551 649.431C900.051 649.847 899.744 650.425 899.635 651.16H905.239C905.124 650.441 904.812 649.863 904.301 649.431C903.801 649.004 903.181 648.785 902.447 648.785Z" fill="#3B3A3A"/>
<path d="M921.951 658.014C920.753 658.014 919.68 657.764 918.722 657.264C917.774 656.764 917.034 656.071 916.492 655.181C915.961 654.295 915.701 653.285 915.701 652.16C915.701 651.024 915.961 650.009 916.492 649.118C917.034 648.233 917.774 647.535 918.722 647.035C919.68 646.535 920.753 646.285 921.951 646.285C923.159 646.285 924.232 646.535 925.18 647.035C926.123 647.535 926.857 648.233 927.388 649.118C927.93 650.009 928.201 651.024 928.201 652.16C928.201 653.285 927.93 654.295 927.388 655.181C926.857 656.071 926.123 656.764 925.18 657.264C924.232 657.764 923.159 658.014 921.951 658.014ZM921.951 655.306C922.794 655.306 923.492 655.024 924.034 654.451C924.576 653.884 924.847 653.118 924.847 652.16C924.847 651.201 924.576 650.441 924.034 649.868C923.492 649.285 922.794 648.993 921.951 648.993C921.102 648.993 920.399 649.285 919.847 649.868C919.305 650.441 919.034 651.201 919.034 652.16C919.034 653.118 919.305 653.884 919.847 654.451C920.399 655.024 921.102 655.306 921.951 655.306Z" fill="#3B3A3A"/>
<path d="M937.308 646.285C938.725 646.285 939.86 646.712 940.725 647.556C941.6 648.405 942.037 649.66 942.037 651.326V657.847H938.725V651.826C938.725 650.925 938.527 650.254 938.141 649.806C937.751 649.363 937.183 649.139 936.433 649.139C935.6 649.139 934.933 649.405 934.433 649.931C933.943 650.446 933.704 651.212 933.704 652.222V657.847H930.391V646.451H933.558V647.785C933.985 647.316 934.527 646.946 935.183 646.681C935.834 646.42 936.542 646.285 937.308 646.285Z" fill="#3B3A3A"/>
<path d="M703.074 669.722H705.991V672.264H703.157V680.847H699.845V672.264H698.095V669.722H699.845V669.201C699.845 667.91 700.225 666.884 700.991 666.118C701.767 665.358 702.855 664.972 704.261 664.972C704.746 664.972 705.209 665.03 705.657 665.139C706.1 665.238 706.475 665.384 706.782 665.576L705.907 667.972C705.532 667.712 705.084 667.576 704.574 667.576C703.574 667.576 703.074 668.129 703.074 669.222V669.722Z" fill="#3B3A3A"/>
<path d="M707.637 669.451H710.949V680.847H707.637V669.451ZM709.282 667.868C708.683 667.868 708.189 667.696 707.803 667.347C707.428 666.988 707.241 666.55 707.241 666.035C707.241 665.509 707.428 665.071 707.803 664.722C708.189 664.363 708.683 664.181 709.282 664.181C709.892 664.181 710.387 664.358 710.762 664.701C711.147 665.035 711.345 665.462 711.345 665.972C711.345 666.514 711.147 666.967 710.762 667.326C710.387 667.691 709.892 667.868 709.282 667.868Z" fill="#3B3A3A"/>
<path d="M720.921 669.285C722.338 669.285 723.473 669.712 724.338 670.556C725.213 671.405 725.65 672.66 725.65 674.326V680.847H722.338V674.826C722.338 673.925 722.14 673.254 721.755 672.806C721.364 672.363 720.796 672.139 720.046 672.139C719.213 672.139 718.546 672.405 718.046 672.931C717.557 673.446 717.317 674.212 717.317 675.222V680.847H714.005V669.451H717.171V670.785C717.598 670.316 718.14 669.946 718.796 669.681C719.447 669.42 720.156 669.285 720.921 669.285Z" fill="#3B3A3A"/>
<path d="M733.228 669.285C734.988 669.285 736.342 669.712 737.29 670.556C738.233 671.389 738.707 672.655 738.707 674.347V680.847H735.603V679.431C734.988 680.488 733.837 681.014 732.144 681.014C731.269 681.014 730.504 680.868 729.853 680.576C729.212 680.274 728.728 679.863 728.394 679.347C728.061 678.821 727.894 678.233 727.894 677.576C727.894 676.509 728.29 675.675 729.082 675.076C729.873 674.467 731.103 674.16 732.769 674.16H735.394C735.394 673.441 735.17 672.884 734.728 672.493C734.295 672.108 733.644 671.91 732.769 671.91C732.17 671.91 731.571 672.009 730.978 672.201C730.394 672.399 729.899 672.655 729.498 672.972L728.311 670.66C728.936 670.233 729.676 669.899 730.54 669.66C731.415 669.41 732.311 669.285 733.228 669.285ZM732.957 678.785C733.524 678.785 734.024 678.66 734.457 678.41C734.899 678.149 735.212 677.759 735.394 677.243V676.076H733.144C731.78 676.076 731.103 676.524 731.103 677.41C731.103 677.842 731.269 678.181 731.603 678.431C731.936 678.67 732.384 678.785 732.957 678.785Z" fill="#3B3A3A"/>
<path d="M748.594 669.285C750.01 669.285 751.146 669.712 752.01 670.556C752.885 671.405 753.323 672.66 753.323 674.326V680.847H750.01V674.826C750.01 673.925 749.812 673.254 749.427 672.806C749.036 672.363 748.469 672.139 747.719 672.139C746.885 672.139 746.219 672.405 745.719 672.931C745.229 673.446 744.99 674.212 744.99 675.222V680.847H741.677V669.451H744.844V670.785C745.271 670.316 745.812 669.946 746.469 669.681C747.12 669.42 747.828 669.285 748.594 669.285Z" fill="#3B3A3A"/>
<path d="M761.796 681.014C760.588 681.014 759.494 680.764 758.525 680.264C757.567 679.764 756.817 679.071 756.275 678.181C755.733 677.295 755.463 676.285 755.463 675.16C755.463 674.024 755.733 673.009 756.275 672.118C756.817 671.233 757.567 670.535 758.525 670.035C759.494 669.535 760.588 669.285 761.796 669.285C763.004 669.285 764.051 669.535 764.942 670.035C765.843 670.535 766.494 671.254 766.9 672.181L764.338 673.556C763.754 672.514 762.9 671.993 761.775 671.993C760.911 671.993 760.197 672.28 759.629 672.847C759.072 673.42 758.796 674.191 758.796 675.16C758.796 676.134 759.072 676.905 759.629 677.472C760.197 678.03 760.911 678.306 761.775 678.306C762.911 678.306 763.765 677.785 764.338 676.743L766.9 678.139C766.494 679.045 765.843 679.754 764.942 680.264C764.051 680.764 763.004 681.014 761.796 681.014Z" fill="#3B3A3A"/>
<path d="M779.966 675.201C779.966 675.243 779.945 675.535 779.904 676.076H771.279C771.43 676.785 771.799 677.347 772.383 677.764C772.966 678.17 773.68 678.368 774.529 678.368C775.122 678.368 775.654 678.285 776.112 678.118C776.57 677.941 776.997 677.655 777.404 677.264L779.154 679.181C778.081 680.405 776.513 681.014 774.445 681.014C773.164 681.014 772.034 680.764 771.049 680.264C770.06 679.764 769.299 679.071 768.758 678.181C768.226 677.295 767.966 676.285 767.966 675.16C767.966 674.035 768.226 673.03 768.758 672.139C769.284 671.238 770.008 670.535 770.924 670.035C771.851 669.535 772.888 669.285 774.029 669.285C775.138 669.285 776.143 669.53 777.049 670.014C777.95 670.488 778.659 671.175 779.174 672.076C779.7 672.967 779.966 674.009 779.966 675.201ZM774.049 671.785C773.299 671.785 772.664 672.004 772.154 672.431C771.654 672.847 771.346 673.425 771.237 674.16H776.841C776.726 673.441 776.414 672.863 775.904 672.431C775.404 672.004 774.784 671.785 774.049 671.785Z" fill="#3B3A3A"/>
<path d="M785.982 681.014C785.035 681.014 784.113 680.899 783.212 680.681C782.305 680.446 781.587 680.149 781.045 679.785L782.149 677.41C782.66 677.743 783.274 678.014 783.982 678.222C784.701 678.42 785.41 678.514 786.107 678.514C787.508 678.514 788.212 678.17 788.212 677.472C788.212 677.155 788.014 676.925 787.628 676.785C787.253 676.649 786.67 676.53 785.878 676.431C784.946 676.28 784.175 676.113 783.566 675.931C782.967 675.754 782.446 675.431 782.003 674.972C781.555 674.504 781.337 673.837 781.337 672.972C781.337 672.254 781.535 671.613 781.941 671.056C782.357 670.504 782.962 670.071 783.753 669.764C784.555 669.446 785.508 669.285 786.607 669.285C787.399 669.285 788.191 669.379 788.982 669.556C789.785 669.738 790.451 669.983 790.982 670.285L789.878 672.639C788.878 672.071 787.785 671.785 786.607 671.785C785.899 671.785 785.363 671.889 785.003 672.097C784.654 672.295 784.482 672.545 784.482 672.847C784.482 673.196 784.67 673.446 785.045 673.597C785.43 673.738 786.045 673.868 786.878 673.993C787.805 674.149 788.566 674.316 789.149 674.493C789.743 674.66 790.258 674.983 790.691 675.451C791.133 675.91 791.357 676.556 791.357 677.389C791.357 678.097 791.139 678.733 790.712 679.285C790.295 679.826 789.675 680.254 788.857 680.556C788.05 680.858 787.092 681.014 785.982 681.014Z" fill="#3B3A3A"/>
<path d="M730.055 349.718C731.373 349.718 732.513 349.942 733.472 350.385C734.441 350.817 735.185 351.437 735.701 352.239C736.227 353.046 736.493 353.999 736.493 355.093C736.493 356.176 736.227 357.129 735.701 357.947C735.185 358.754 734.441 359.374 733.472 359.801C732.513 360.234 731.373 360.447 730.055 360.447H727.076V364.53H723.638V349.718H730.055ZM729.868 357.655C730.894 357.655 731.67 357.437 732.201 356.989C732.743 356.546 733.013 355.916 733.013 355.093C733.013 354.26 732.743 353.624 732.201 353.176C731.67 352.734 730.894 352.51 729.868 352.51H727.076V357.655H729.868Z" fill="#3B3A3A"/>
<path d="M742.062 354.655C742.448 354.103 742.979 353.687 743.646 353.405C744.323 353.114 745.094 352.968 745.958 352.968V356.03C745.594 356.004 745.354 355.989 745.229 355.989C744.281 355.989 743.542 356.254 743 356.78C742.469 357.312 742.208 358.103 742.208 359.155V364.53H738.896V353.135H742.062V354.655Z" fill="#3B3A3A"/>
<path d="M753.431 364.697C752.233 364.697 751.16 364.447 750.201 363.947C749.254 363.447 748.514 362.754 747.972 361.864C747.441 360.978 747.181 359.968 747.181 358.843C747.181 357.707 747.441 356.692 747.972 355.801C748.514 354.916 749.254 354.218 750.201 353.718C751.16 353.218 752.233 352.968 753.431 352.968C754.639 352.968 755.712 353.218 756.66 353.718C757.603 354.218 758.337 354.916 758.868 355.801C759.41 356.692 759.681 357.707 759.681 358.843C759.681 359.968 759.41 360.978 758.868 361.864C758.337 362.754 757.603 363.447 756.66 363.947C755.712 364.447 754.639 364.697 753.431 364.697ZM753.431 361.989C754.274 361.989 754.972 361.707 755.514 361.135C756.056 360.567 756.326 359.801 756.326 358.843C756.326 357.885 756.056 357.124 755.514 356.551C754.972 355.968 754.274 355.676 753.431 355.676C752.582 355.676 751.879 355.968 751.326 356.551C750.785 357.124 750.514 357.885 750.514 358.843C750.514 359.801 750.785 360.567 751.326 361.135C751.879 361.707 752.582 361.989 753.431 361.989Z" fill="#3B3A3A"/>
<path d="M768.601 352.968C769.653 352.968 770.611 353.213 771.476 353.697C772.351 354.187 773.038 354.874 773.538 355.76C774.038 356.635 774.288 357.666 774.288 358.843C774.288 360.01 774.038 361.041 773.538 361.926C773.038 362.801 772.351 363.484 771.476 363.968C770.611 364.458 769.653 364.697 768.601 364.697C767.028 364.697 765.84 364.208 765.038 363.218V364.53H761.872V348.822H765.184V354.343C766.017 353.426 767.153 352.968 768.601 352.968ZM768.038 361.989C768.882 361.989 769.58 361.708 770.122 361.135C770.663 360.567 770.934 359.801 770.934 358.843C770.934 357.885 770.663 357.124 770.122 356.551C769.58 355.968 768.882 355.676 768.038 355.676C767.189 355.676 766.497 355.968 765.955 356.551C765.413 357.124 765.142 357.885 765.142 358.843C765.142 359.801 765.413 360.567 765.955 361.135C766.497 361.708 767.189 361.989 768.038 361.989Z" fill="#3B3A3A"/>
<path d="M776.469 348.822H779.782V364.53H776.469V348.822Z" fill="#3B3A3A"/>
<path d="M794.004 358.885C794.004 358.926 793.983 359.218 793.942 359.76H785.317C785.468 360.468 785.837 361.03 786.421 361.447C787.004 361.853 787.718 362.051 788.567 362.051C789.16 362.051 789.692 361.968 790.15 361.801C790.608 361.624 791.035 361.338 791.442 360.947L793.192 362.864C792.119 364.088 790.551 364.697 788.483 364.697C787.202 364.697 786.072 364.447 785.087 363.947C784.098 363.447 783.337 362.754 782.796 361.864C782.265 360.978 782.004 359.968 782.004 358.843C782.004 357.718 782.265 356.713 782.796 355.822C783.322 354.921 784.046 354.218 784.962 353.718C785.89 353.218 786.926 352.968 788.067 352.968C789.176 352.968 790.181 353.213 791.087 353.697C791.989 354.171 792.697 354.859 793.212 355.76C793.739 356.65 794.004 357.692 794.004 358.885ZM788.087 355.468C787.337 355.468 786.702 355.687 786.192 356.114C785.692 356.53 785.384 357.109 785.275 357.843H790.879C790.765 357.124 790.452 356.546 789.942 356.114C789.442 355.687 788.822 355.468 788.087 355.468Z" fill="#3B3A3A"/>
<path d="M810.77 352.968C812.197 352.968 813.333 353.395 814.166 354.239C815.01 355.072 815.437 356.332 815.437 358.01V364.53H812.125V358.51C812.125 357.609 811.937 356.937 811.562 356.489C811.187 356.046 810.656 355.822 809.979 355.822C809.197 355.822 808.583 356.082 808.125 356.593C807.677 357.093 807.458 357.838 807.458 358.822V364.53H804.145V358.51C804.145 356.718 803.427 355.822 802 355.822C801.234 355.822 800.625 356.082 800.166 356.593C799.718 357.093 799.5 357.838 799.5 358.822V364.53H796.187V353.135H799.354V354.447C799.77 353.978 800.281 353.614 800.895 353.364C801.505 353.103 802.177 352.968 802.916 352.968C803.718 352.968 804.447 353.129 805.104 353.447C805.755 353.77 806.276 354.234 806.666 354.843C807.135 354.249 807.729 353.791 808.437 353.468C809.145 353.135 809.921 352.968 810.77 352.968Z" fill="#3B3A3A"/>
<path d="M822.213 364.697C821.265 364.697 820.344 364.582 819.443 364.364C818.536 364.129 817.818 363.832 817.276 363.468L818.38 361.093C818.89 361.426 819.505 361.697 820.213 361.905C820.932 362.103 821.64 362.197 822.338 362.197C823.739 362.197 824.443 361.853 824.443 361.155C824.443 360.838 824.245 360.609 823.859 360.468C823.484 360.332 822.901 360.213 822.109 360.114C821.177 359.963 820.406 359.796 819.797 359.614C819.198 359.437 818.677 359.114 818.234 358.655C817.786 358.187 817.568 357.52 817.568 356.655C817.568 355.937 817.765 355.296 818.172 354.739C818.588 354.187 819.193 353.754 819.984 353.447C820.786 353.129 821.739 352.968 822.838 352.968C823.63 352.968 824.422 353.062 825.213 353.239C826.015 353.421 826.682 353.666 827.213 353.968L826.109 356.322C825.109 355.754 824.015 355.468 822.838 355.468C822.13 355.468 821.594 355.572 821.234 355.78C820.885 355.978 820.713 356.228 820.713 356.53C820.713 356.879 820.901 357.129 821.276 357.28C821.661 357.421 822.276 357.551 823.109 357.676C824.036 357.832 824.797 357.999 825.38 358.176C825.974 358.343 826.489 358.666 826.922 359.135C827.364 359.593 827.588 360.239 827.588 361.072C827.588 361.78 827.37 362.416 826.943 362.968C826.526 363.51 825.906 363.937 825.088 364.239C824.281 364.541 823.323 364.697 822.213 364.697Z" fill="#3B3A3A"/>
<path d="M853.893 353.135L849.768 364.53H846.58L844.039 357.468L841.393 364.53H838.205L834.101 353.135H837.205L839.893 360.843L842.705 353.135H845.497L848.205 360.843L850.976 353.135H853.893Z" fill="#3B3A3A"/>
<path d="M855.425 353.135H858.737V364.53H855.425V353.135ZM857.07 351.551C856.472 351.551 855.977 351.379 855.591 351.03C855.216 350.671 855.029 350.234 855.029 349.718C855.029 349.192 855.216 348.754 855.591 348.405C855.977 348.046 856.472 347.864 857.07 347.864C857.68 347.864 858.175 348.041 858.55 348.385C858.935 348.718 859.133 349.145 859.133 349.655C859.133 350.197 858.935 350.65 858.55 351.01C858.175 351.374 857.68 351.551 857.07 351.551Z" fill="#3B3A3A"/>
<path d="M869.147 363.989C868.814 364.228 868.407 364.405 867.939 364.53C867.465 364.64 866.97 364.697 866.46 364.697C865.095 364.697 864.043 364.359 863.293 363.676C862.553 362.984 862.189 361.963 862.189 360.614V355.947H860.439V353.405H862.189V350.614H865.501V353.405H868.335V355.947H865.501V360.572C865.501 361.062 865.626 361.437 865.876 361.697C866.126 361.947 866.47 362.072 866.918 362.072C867.444 362.072 867.887 361.937 868.251 361.655L869.147 363.989Z" fill="#3B3A3A"/>
<path d="M877.913 352.968C879.329 352.968 880.465 353.395 881.329 354.239C882.204 355.088 882.642 356.343 882.642 358.01V364.53H879.329V358.51C879.329 357.609 879.131 356.937 878.746 356.489C878.355 356.046 877.788 355.822 877.038 355.822C876.204 355.822 875.538 356.088 875.038 356.614C874.548 357.129 874.308 357.895 874.308 358.905V364.53H870.996V348.822H874.308V354.322C874.735 353.895 875.267 353.562 875.892 353.322C876.517 353.088 877.189 352.968 877.913 352.968Z" fill="#3B3A3A"/>
<path d="M895.436 364.697C894.488 364.697 893.566 364.582 892.665 364.364C891.758 364.129 891.04 363.832 890.498 363.468L891.602 361.093C892.113 361.426 892.727 361.697 893.436 361.905C894.154 362.103 894.863 362.197 895.561 362.197C896.962 362.197 897.665 361.853 897.665 361.155C897.665 360.838 897.467 360.609 897.081 360.468C896.706 360.332 896.123 360.213 895.331 360.114C894.399 359.963 893.628 359.796 893.019 359.614C892.42 359.437 891.899 359.114 891.456 358.655C891.008 358.187 890.79 357.52 890.79 356.655C890.79 355.937 890.988 355.296 891.394 354.739C891.811 354.187 892.415 353.754 893.206 353.447C894.008 353.129 894.962 352.968 896.061 352.968C896.852 352.968 897.644 353.062 898.436 353.239C899.238 353.421 899.904 353.666 900.436 353.968L899.331 356.322C898.331 355.754 897.238 355.468 896.061 355.468C895.352 355.468 894.816 355.572 894.456 355.78C894.107 355.978 893.936 356.228 893.936 356.53C893.936 356.879 894.123 357.129 894.498 357.28C894.883 357.421 895.498 357.551 896.331 357.676C897.258 357.832 898.019 357.999 898.602 358.176C899.196 358.343 899.712 358.666 900.144 359.135C900.587 359.593 900.811 360.239 900.811 361.072C900.811 361.78 900.592 362.416 900.165 362.968C899.748 363.51 899.128 363.937 898.311 364.239C897.503 364.541 896.545 364.697 895.436 364.697Z" fill="#3B3A3A"/>
<path d="M907.44 352.968C909.201 352.968 910.555 353.395 911.503 354.239C912.445 355.072 912.919 356.338 912.919 358.03V364.53H909.815V363.114C909.201 364.171 908.05 364.697 906.357 364.697C905.482 364.697 904.716 364.551 904.065 364.26C903.425 363.957 902.94 363.546 902.607 363.03C902.274 362.504 902.107 361.916 902.107 361.26C902.107 360.192 902.503 359.359 903.294 358.76C904.086 358.15 905.315 357.843 906.982 357.843H909.607C909.607 357.124 909.383 356.567 908.94 356.176C908.508 355.791 907.857 355.593 906.982 355.593C906.383 355.593 905.784 355.692 905.19 355.885C904.607 356.082 904.112 356.338 903.711 356.655L902.524 354.343C903.149 353.916 903.888 353.582 904.753 353.343C905.628 353.093 906.524 352.968 907.44 352.968ZM907.169 362.468C907.737 362.468 908.237 362.343 908.669 362.093C909.112 361.832 909.425 361.442 909.607 360.926V359.76H907.357C905.992 359.76 905.315 360.207 905.315 361.093C905.315 361.525 905.482 361.864 905.815 362.114C906.149 362.353 906.597 362.468 907.169 362.468Z" fill="#3B3A3A"/>
<path d="M927.202 353.135L922.39 364.53H918.973L914.202 353.135H917.598L920.765 360.885L924.015 353.135H927.202Z" fill="#3B3A3A"/>
<path d="M928.541 353.135H931.854V364.53H928.541V353.135ZM930.187 351.551C929.588 351.551 929.093 351.379 928.708 351.03C928.333 350.671 928.145 350.234 928.145 349.718C928.145 349.192 928.333 348.754 928.708 348.405C929.093 348.046 929.588 347.864 930.187 347.864C930.796 347.864 931.291 348.041 931.666 348.385C932.052 348.718 932.249 349.145 932.249 349.655C932.249 350.197 932.052 350.65 931.666 351.01C931.291 351.374 930.796 351.551 930.187 351.551Z" fill="#3B3A3A"/>
<path d="M941.826 352.968C943.243 352.968 944.378 353.395 945.243 354.239C946.118 355.088 946.555 356.343 946.555 358.01V364.53H943.243V358.51C943.243 357.609 943.045 356.937 942.659 356.489C942.269 356.046 941.701 355.822 940.951 355.822C940.118 355.822 939.451 356.088 938.951 356.614C938.461 357.129 938.222 357.895 938.222 358.905V364.53H934.909V353.135H938.076V354.468C938.503 353.999 939.045 353.629 939.701 353.364C940.352 353.103 941.06 352.968 941.826 352.968Z" fill="#3B3A3A"/>
<path d="M961.278 353.135V362.635C961.278 364.718 960.736 366.265 959.653 367.28C958.57 368.291 956.976 368.801 954.882 368.801C953.783 368.801 952.742 368.666 951.757 368.405C950.768 368.14 949.95 367.749 949.299 367.239L950.611 364.864C951.096 365.265 951.7 365.577 952.424 365.801C953.158 366.036 953.893 366.155 954.632 366.155C955.768 366.155 956.611 365.895 957.153 365.385C957.705 364.869 957.986 364.093 957.986 363.051V362.572C957.122 363.52 955.924 363.989 954.382 363.989C953.341 363.989 952.382 363.76 951.507 363.301C950.643 362.843 949.955 362.197 949.445 361.364C948.945 360.53 948.695 359.567 948.695 358.468C948.695 357.385 948.945 356.426 949.445 355.593C949.955 354.76 950.643 354.114 951.507 353.655C952.382 353.197 953.341 352.968 954.382 352.968C956.033 352.968 957.289 353.51 958.153 354.593V353.135H961.278ZM955.028 361.28C955.903 361.28 956.617 361.025 957.174 360.51C957.742 359.984 958.028 359.301 958.028 358.468C958.028 357.635 957.742 356.963 957.174 356.447C956.617 355.937 955.903 355.676 955.028 355.676C954.153 355.676 953.429 355.937 952.861 356.447C952.304 356.963 952.028 357.635 952.028 358.468C952.028 359.301 952.304 359.984 952.861 360.51C953.429 361.025 954.153 361.28 955.028 361.28Z" fill="#3B3A3A"/>
<path d="M981.804 353.135V364.53H978.658V363.176C978.226 363.676 977.705 364.062 977.096 364.322C976.497 364.572 975.846 364.697 975.137 364.697C973.637 364.697 972.45 364.27 971.575 363.405C970.7 362.546 970.262 361.27 970.262 359.572V353.135H973.575V359.093C973.575 360.926 974.335 361.843 975.866 361.843C976.658 361.843 977.288 361.588 977.762 361.072C978.247 360.562 978.491 359.796 978.491 358.78V353.135H981.804Z" fill="#3B3A3A"/>
<path d="M991.588 352.968C992.64 352.968 993.599 353.213 994.463 353.697C995.338 354.187 996.026 354.874 996.526 355.76C997.026 356.635 997.276 357.666 997.276 358.843C997.276 360.01 997.026 361.041 996.526 361.926C996.026 362.801 995.338 363.484 994.463 363.968C993.599 364.457 992.64 364.697 991.588 364.697C990.14 364.697 989.005 364.239 988.172 363.322V368.635H984.859V353.135H988.026V354.447C988.828 353.463 990.015 352.968 991.588 352.968ZM991.026 361.989C991.87 361.989 992.567 361.707 993.109 361.135C993.651 360.567 993.922 359.801 993.922 358.843C993.922 357.885 993.651 357.124 993.109 356.551C992.567 355.968 991.87 355.676 991.026 355.676C990.177 355.676 989.484 355.968 988.942 356.551C988.401 357.124 988.13 357.885 988.13 358.843C988.13 359.801 988.401 360.567 988.942 361.135C989.484 361.707 990.177 361.989 991.026 361.989Z" fill="#3B3A3A"/>
<path d="M52.4331 413.233H55.5581V419.254C54.7508 419.853 53.8185 420.316 52.7664 420.65C51.7091 420.967 50.6466 421.129 49.5789 421.129C48.0373 421.129 46.6466 420.806 45.4123 420.15C44.1883 419.499 43.23 418.587 42.5373 417.42C41.8394 416.254 41.4956 414.936 41.4956 413.462C41.4956 412.004 41.8394 410.691 42.5373 409.525C43.23 408.358 44.1935 407.452 45.4331 406.795C46.6831 406.144 48.0841 405.816 49.6414 405.816C50.9331 405.816 52.105 406.04 53.1623 406.483C54.23 406.915 55.1206 407.545 55.8289 408.379L53.6414 410.4C52.5841 409.29 51.3081 408.733 49.8081 408.733C48.8602 408.733 48.0216 408.936 47.2873 409.337C46.5477 409.728 45.9748 410.285 45.5581 411.004C45.1519 411.712 44.9539 412.535 44.9539 413.462C44.9539 414.379 45.1519 415.202 45.5581 415.92C45.9748 416.644 46.5425 417.207 47.2664 417.608C48.0008 418.014 48.8341 418.212 49.7664 418.212C50.7508 418.212 51.6414 418.004 52.4331 417.587V413.233Z" fill="#3B3A3A"/>
<path d="M69.9738 409.483V420.879H66.828V419.525C66.3957 420.025 65.8748 420.41 65.2655 420.67C64.6665 420.92 64.0155 421.045 63.3071 421.045C61.8071 421.045 60.6196 420.618 59.7446 419.754C58.8696 418.894 58.4321 417.618 58.4321 415.92V409.483H61.7446V415.441C61.7446 417.275 62.505 418.191 64.0363 418.191C64.828 418.191 65.4582 417.936 65.9321 417.42C66.4165 416.91 66.6613 416.144 66.6613 415.129V409.483H69.9738Z" fill="#3B3A3A"/>
<path d="M73.0289 409.483H76.3414V420.879H73.0289V409.483ZM74.6747 407.9C74.0758 407.9 73.581 407.728 73.1956 407.379C72.8206 407.019 72.6331 406.582 72.6331 406.066C72.6331 405.54 72.8206 405.103 73.1956 404.754C73.581 404.394 74.0758 404.212 74.6747 404.212C75.2841 404.212 75.7789 404.389 76.1539 404.733C76.5393 405.066 76.7372 405.493 76.7372 406.004C76.7372 406.545 76.5393 406.999 76.1539 407.358C75.7789 407.723 75.2841 407.9 74.6747 407.9Z" fill="#3B3A3A"/>
<path d="M79.397 405.17H82.7095V420.879H79.397V405.17Z" fill="#3B3A3A"/>
<path d="M93.1192 420.337C92.7859 420.577 92.3796 420.754 91.9109 420.879C91.4369 420.988 90.9421 421.045 90.4317 421.045C89.0671 421.045 88.0151 420.707 87.2651 420.025C86.5255 419.332 86.1609 418.311 86.1609 416.962V412.295H84.4109V409.754H86.1609V406.962H89.4734V409.754H92.3067V412.295H89.4734V416.92C89.4734 417.41 89.5984 417.785 89.8484 418.045C90.0984 418.295 90.4421 418.42 90.8901 418.42C91.4161 418.42 91.8588 418.285 92.2234 418.004L93.1192 420.337Z" fill="#3B3A3A"/>
<path d="M106.28 409.483L101.135 421.587C100.603 422.889 99.9523 423.806 99.1763 424.337C98.4106 424.879 97.4888 425.15 96.4054 425.15C95.8221 425.15 95.2388 425.056 94.6554 424.879C94.0721 424.696 93.5981 424.441 93.2388 424.108L94.4471 421.775C94.6971 421.993 94.9888 422.17 95.3221 422.295C95.6554 422.42 95.9784 422.483 96.3013 422.483C96.7596 422.483 97.1242 422.368 97.4054 422.15C97.6815 421.941 97.9367 421.577 98.1763 421.066L98.2179 420.962L93.2804 409.483H96.6763L99.8846 417.212L103.093 409.483H106.28Z" fill="#3B3A3A"/>
<path d="M120.336 409.316C121.388 409.316 122.346 409.561 123.211 410.045C124.086 410.535 124.773 411.223 125.273 412.108C125.773 412.983 126.023 414.014 126.023 415.191C126.023 416.358 125.773 417.389 125.273 418.275C124.773 419.15 124.086 419.832 123.211 420.316C122.346 420.806 121.388 421.045 120.336 421.045C118.888 421.045 117.753 420.587 116.919 419.67V424.983H113.607V409.483H116.773V410.795C117.575 409.811 118.763 409.316 120.336 409.316ZM119.773 418.337C120.617 418.337 121.315 418.056 121.857 417.483C122.398 416.915 122.669 416.15 122.669 415.191C122.669 414.233 122.398 413.473 121.857 412.9C121.315 412.316 120.617 412.025 119.773 412.025C118.924 412.025 118.232 412.316 117.69 412.9C117.148 413.473 116.878 414.233 116.878 415.191C116.878 416.15 117.148 416.915 117.69 417.483C118.232 418.056 118.924 418.337 119.773 418.337Z" fill="#3B3A3A"/>
<path d="M128.205 405.17H131.517V420.879H128.205V405.17Z" fill="#3B3A3A"/>
<path d="M145.739 415.233C145.739 415.275 145.718 415.566 145.677 416.108H137.052C137.203 416.816 137.573 417.379 138.156 417.795C138.739 418.202 139.453 418.4 140.302 418.4C140.896 418.4 141.427 418.316 141.885 418.15C142.343 417.973 142.771 417.686 143.177 417.295L144.927 419.212C143.854 420.436 142.286 421.045 140.218 421.045C138.937 421.045 137.807 420.795 136.823 420.295C135.833 419.795 135.073 419.103 134.531 418.212C134 417.327 133.739 416.316 133.739 415.191C133.739 414.066 134 413.061 134.531 412.17C135.057 411.269 135.781 410.566 136.698 410.066C137.625 409.566 138.661 409.316 139.802 409.316C140.911 409.316 141.916 409.561 142.823 410.045C143.724 410.519 144.432 411.207 144.948 412.108C145.474 412.999 145.739 414.04 145.739 415.233ZM139.823 411.816C139.073 411.816 138.437 412.035 137.927 412.462C137.427 412.879 137.119 413.457 137.01 414.191H142.614C142.5 413.473 142.187 412.894 141.677 412.462C141.177 412.035 140.557 411.816 139.823 411.816Z" fill="#3B3A3A"/>
<path d="M152.526 409.316C154.287 409.316 155.641 409.743 156.589 410.587C157.532 411.42 158.006 412.686 158.006 414.379V420.879H154.901V419.462C154.287 420.519 153.136 421.045 151.443 421.045C150.568 421.045 149.802 420.9 149.151 420.608C148.511 420.306 148.026 419.894 147.693 419.379C147.36 418.853 147.193 418.264 147.193 417.608C147.193 416.54 147.589 415.707 148.381 415.108C149.172 414.499 150.401 414.191 152.068 414.191H154.693C154.693 413.473 154.469 412.915 154.026 412.525C153.594 412.139 152.943 411.941 152.068 411.941C151.469 411.941 150.87 412.04 150.276 412.233C149.693 412.431 149.198 412.686 148.797 413.004L147.61 410.691C148.235 410.264 148.974 409.931 149.839 409.691C150.714 409.441 151.61 409.316 152.526 409.316ZM152.256 418.816C152.823 418.816 153.323 418.691 153.756 418.441C154.198 418.181 154.511 417.79 154.693 417.275V416.108H152.443C151.079 416.108 150.401 416.556 150.401 417.441C150.401 417.874 150.568 418.212 150.901 418.462C151.235 418.702 151.683 418.816 152.256 418.816Z" fill="#3B3A3A"/>
<path d="M164.809 421.045C163.861 421.045 162.939 420.931 162.038 420.712C161.132 420.478 160.413 420.181 159.872 419.816L160.976 417.441C161.486 417.775 162.101 418.045 162.809 418.254C163.528 418.452 164.236 418.545 164.934 418.545C166.335 418.545 167.038 418.202 167.038 417.504C167.038 417.186 166.84 416.957 166.455 416.816C166.08 416.681 165.497 416.561 164.705 416.462C163.773 416.311 163.002 416.144 162.392 415.962C161.793 415.785 161.273 415.462 160.83 415.004C160.382 414.535 160.163 413.868 160.163 413.004C160.163 412.285 160.361 411.644 160.767 411.087C161.184 410.535 161.788 410.103 162.58 409.795C163.382 409.478 164.335 409.316 165.434 409.316C166.226 409.316 167.017 409.41 167.809 409.587C168.611 409.769 169.278 410.014 169.809 410.316L168.705 412.67C167.705 412.103 166.611 411.816 165.434 411.816C164.726 411.816 164.189 411.92 163.83 412.129C163.481 412.327 163.309 412.577 163.309 412.879C163.309 413.228 163.497 413.478 163.872 413.629C164.257 413.769 164.872 413.9 165.705 414.025C166.632 414.181 167.392 414.348 167.976 414.525C168.569 414.691 169.085 415.014 169.517 415.483C169.96 415.941 170.184 416.587 170.184 417.42C170.184 418.129 169.965 418.764 169.538 419.316C169.122 419.858 168.502 420.285 167.684 420.587C166.877 420.889 165.918 421.045 164.809 421.045Z" fill="#3B3A3A"/>
<path d="M183.689 409.483V420.879H180.543V419.525C180.111 420.025 179.59 420.41 178.981 420.67C178.382 420.92 177.731 421.045 177.022 421.045C175.522 421.045 174.335 420.618 173.46 419.754C172.585 418.894 172.147 417.618 172.147 415.92V409.483H175.46V415.441C175.46 417.275 176.22 418.191 177.751 418.191C178.543 418.191 179.173 417.936 179.647 417.42C180.132 416.91 180.376 416.144 180.376 415.129V409.483H183.689Z" fill="#3B3A3A"/>
<path d="M189.911 411.004C190.296 410.452 190.827 410.035 191.494 409.754C192.171 409.462 192.942 409.316 193.807 409.316V412.379C193.442 412.353 193.202 412.337 193.077 412.337C192.13 412.337 191.39 412.603 190.848 413.129C190.317 413.66 190.057 414.452 190.057 415.504V420.879H186.744V409.483H189.911V411.004Z" fill="#3B3A3A"/>
<path d="M207.029 415.233C207.029 415.275 207.008 415.566 206.967 416.108H198.342C198.493 416.816 198.863 417.379 199.446 417.795C200.029 418.202 200.743 418.4 201.592 418.4C202.186 418.4 202.717 418.316 203.175 418.15C203.633 417.973 204.061 417.686 204.467 417.295L206.217 419.212C205.144 420.436 203.576 421.045 201.508 421.045C200.227 421.045 199.097 420.795 198.113 420.295C197.123 419.795 196.363 419.103 195.821 418.212C195.29 417.327 195.029 416.316 195.029 415.191C195.029 414.066 195.29 413.061 195.821 412.17C196.347 411.269 197.071 410.566 197.988 410.066C198.915 409.566 199.951 409.316 201.092 409.316C202.201 409.316 203.206 409.561 204.113 410.045C205.014 410.519 205.722 411.207 206.238 412.108C206.764 412.999 207.029 414.04 207.029 415.233ZM201.113 411.816C200.363 411.816 199.727 412.035 199.217 412.462C198.717 412.879 198.41 413.457 198.3 414.191H203.904C203.79 413.473 203.477 412.894 202.967 412.462C202.467 412.035 201.847 411.816 201.113 411.816Z" fill="#3B3A3A"/>
<path d="M213.045 421.045C212.097 421.045 211.176 420.931 210.275 420.712C209.368 420.478 208.65 420.181 208.108 419.816L209.212 417.441C209.722 417.775 210.337 418.045 211.045 418.254C211.764 418.452 212.472 418.545 213.17 418.545C214.571 418.545 215.275 418.202 215.275 417.504C215.275 417.186 215.077 416.957 214.691 416.816C214.316 416.681 213.733 416.561 212.941 416.462C212.009 416.311 211.238 416.144 210.629 415.962C210.03 415.785 209.509 415.462 209.066 415.004C208.618 414.535 208.4 413.868 208.4 413.004C208.4 412.285 208.597 411.644 209.004 411.087C209.42 410.535 210.025 410.103 210.816 409.795C211.618 409.478 212.571 409.316 213.67 409.316C214.462 409.316 215.254 409.41 216.045 409.587C216.847 409.769 217.514 410.014 218.045 410.316L216.941 412.67C215.941 412.103 214.847 411.816 213.67 411.816C212.962 411.816 212.426 411.92 212.066 412.129C211.717 412.327 211.545 412.577 211.545 412.879C211.545 413.228 211.733 413.478 212.108 413.629C212.493 413.769 213.108 413.9 213.941 414.025C214.868 414.181 215.629 414.348 216.212 414.525C216.806 414.691 217.321 415.014 217.754 415.483C218.196 415.941 218.42 416.587 218.42 417.42C218.42 418.129 218.202 418.764 217.775 419.316C217.358 419.858 216.738 420.285 215.92 420.587C215.113 420.889 214.155 421.045 213.045 421.045Z" fill="#3B3A3A"/>
<path d="M458.167 330.422V275.052" stroke="#2F2A2A" stroke-width="2.64614" stroke-linecap="round"/>
<path d="M458.635 274.875L502.005 252.208" stroke="#2F2A2A" stroke-width="2.64614" stroke-linecap="round"/>
<path d="M510.213 247.922C511.229 249.865 510.479 252.26 508.536 253.276C506.594 254.292 504.193 253.542 503.177 251.599C502.161 249.656 502.917 247.255 504.859 246.24C506.802 245.224 509.198 245.979 510.213 247.922Z" stroke="#2F2A2A" stroke-width="2.64614" stroke-linecap="round" stroke-linejoin="round"/>
<path d="M418.417 597.411V652.781" stroke="#2F2A2A" stroke-width="2.64614" stroke-linecap="round"/>
<path d="M417.948 652.958L374.578 675.625" stroke="#2F2A2A" stroke-width="2.64614" stroke-linecap="round"/>
<path d="M366.37 679.917C365.354 677.974 366.109 675.573 368.052 674.557C369.995 673.542 372.391 674.297 373.406 676.24C374.422 678.182 373.672 680.578 371.729 681.594C369.787 682.609 367.385 681.859 366.37 679.917Z" stroke="#2F2A2A" stroke-width="2.64614" stroke-linecap="round" stroke-linejoin="round"/>
<path d="M304.104 418.276L328.63 467.917" stroke="#2F2A2A" stroke-width="2.64614" stroke-linecap="round"/>
<path d="M303.24 417.672L254.542 412.859" stroke="#2F2A2A" stroke-width="2.64614" stroke-linecap="round"/>
<path d="M245.323 411.948C245.542 409.766 247.484 408.172 249.667 408.391C251.844 408.604 253.437 410.547 253.224 412.729C253.01 414.911 251.062 416.505 248.885 416.292C246.703 416.073 245.109 414.13 245.323 411.948Z" stroke="#2F2A2A" stroke-width="2.64614" stroke-linecap="round" stroke-linejoin="round"/>
<path d="M620.255 560.984V616.354" stroke="#2F2A2A" stroke-width="2.64614" stroke-linecap="round"/>
<path d="M620.688 616.792L663.839 639.88" stroke="#2F2A2A" stroke-width="2.64614" stroke-linecap="round"/>
<path d="M672.005 644.245C670.969 646.182 668.563 646.906 666.63 645.875C664.698 644.839 663.969 642.438 665.005 640.5C666.037 638.568 668.443 637.839 670.375 638.875C672.307 639.911 673.037 642.313 672.005 644.245Z" stroke="#2F2A2A" stroke-width="2.64614" stroke-linecap="round" stroke-linejoin="round"/>
<path d="M611.25 407.12L636.828 358.01" stroke="#2F2A2A" stroke-width="2.64614" stroke-linecap="round"/>
<path d="M637.323 358.068L686.255 358" stroke="#2F2A2A" stroke-width="2.64614" stroke-linecap="round"/>
<path d="M695.521 357.984C695.521 360.177 693.75 361.958 691.557 361.958C689.364 361.964 687.583 360.188 687.578 357.995C687.578 355.802 689.354 354.026 691.542 354.021C693.734 354.021 695.516 355.792 695.521 357.984Z" stroke="#2F2A2A" stroke-width="2.64614" stroke-linecap="round" stroke-linejoin="round"/>
</g>
<defs>
<clipPath id="clip0_688_16897">
<rect width="1024" height="768" rx="18" fill="white"/>
</clipPath>
</defs>
</svg>
